<svg width="79" height="80" viewBox="0 0 79 80" fill="none" xmlns="http://www.w3.org/2000/svg">
<path d="M50.6094 18.1758C54.018 18.1758 56.7812 15.4125 56.7812 12.0039C56.7812 8.59527 54.018 5.83203 50.6094 5.83203C47.2007 5.83203 44.4375 8.59527 44.4375 12.0039C44.4375 15.4125 47.2007 18.1758 50.6094 18.1758Z" fill="#F2D831"/>
<path d="M62.469 66.6526L61.124 66.3164V48.6494C62.8375 48.0963 64.3161 46.9847 65.3234 45.4923C66.3307 43.9998 66.8085 42.2127 66.6804 40.4168L64.8271 14.4727H52.4834L50.6303 40.4164C50.5022 42.2124 50.98 43.9995 51.9872 45.4919C52.9945 46.9843 54.473 48.096 56.1865 48.6491V66.3164L54.8416 66.6526C53.8155 66.9091 52.9045 67.5013 52.2535 68.3351C51.6026 69.1688 51.249 70.1962 51.249 71.2539H66.0615C66.0615 70.1962 65.708 69.1688 65.057 68.3351C64.4061 67.5014 63.4951 66.9092 62.469 66.6526Z" fill="#8CB9DD"/>
<path d="M61.124 48.6495C62.8375 48.0964 64.3161 46.9848 65.3234 45.4924C66.3307 43.9999 66.8085 42.2128 66.6804 40.4168L65.3585 21.9111L62.4749 23.3525C61.8702 23.6549 61.1964 23.792 60.5217 23.75C59.847 23.708 59.1953 23.4884 58.6329 23.1134C58.0704 22.7384 57.4188 22.5187 56.7441 22.4767C56.0693 22.4347 55.3955 22.5718 54.7909 22.8742L51.8438 24.3477L51.7754 24.3846L50.6303 40.4161C50.5022 42.212 50.98 43.9991 51.9872 45.4915C52.9945 46.984 54.473 48.0956 56.1865 48.6487L61.124 48.6495Z" fill="#EE2526"/>
<path d="M40.7344 71.2539H37.0312V46.5664L55.5469 28.0508H13.5781L32.0938 46.5664V71.2539H28.3906C27.0811 71.2539 25.8252 71.7741 24.8993 72.7001C23.9733 73.626 23.4531 74.8819 23.4531 76.1914H45.6719C45.6719 74.8819 45.1517 73.626 44.2257 72.7001C43.2998 71.7741 42.0439 71.2539 40.7344 71.2539Z" fill="#8CB9DD"/>
<path d="M38.777 44.8207L49.3309 34.2668L45.8823 33.5235C44.1343 33.1738 42.3223 33.34 40.6671 34.0018L40.4444 34.0909C38.2536 34.9673 35.8095 34.9673 33.6187 34.0909C31.8251 33.3735 29.851 33.2395 27.9769 33.7081L21.0353 35.5079L30.348 44.8207C31.4658 45.9385 32.9818 46.5664 34.5625 46.5664C36.1432 46.5664 37.6592 45.9385 38.777 44.8207Z" fill="#E2DBC5"/>
<path d="M32.2775 43.6643C31.7665 43.1532 31.3996 42.5162 31.214 41.8178C31.0284 41.1193 31.0306 40.3842 31.2206 39.6869C31.4105 38.9896 31.7813 38.3549 32.2955 37.847C32.8097 37.3392 33.4489 36.9762 34.1485 36.795C36.0226 36.3264 37.9966 36.4604 39.7902 37.1778C41.8742 38.0108 44.191 38.0522 46.3034 37.2943L49.3304 34.2673L45.8819 33.524C44.1338 33.1743 42.3219 33.3405 40.6666 34.0023L40.444 34.0914C38.2531 34.9678 35.8091 34.9678 33.6182 34.0914C31.8246 33.374 29.8505 33.24 27.9765 33.7086L21.0353 35.508L30.348 44.8207C31.4658 45.9385 32.9818 46.5664 34.5625 46.5664C34.7597 46.5664 34.9557 46.5568 35.1505 46.5374L32.2775 43.6643Z" fill="#F9F1E1"/>
<path d="M56.7588 44.3324L54.3351 43.8633L61.7413 5.59771C61.7892 5.35051 61.9115 5.12385 62.0918 4.94815C62.2722 4.77244 62.5019 4.65608 62.7503 4.61469L70.1565 3.38031L70.5623 5.81542L64.0024 6.90893L56.7588 44.3324Z" fill="#D1E3EE"/>
<path d="M7.7478 9.15228L9.52037 7.43403L34.5092 33.2127L32.7366 34.931L7.7478 9.15228Z" fill="#D1E3EE"/>
<path d="M14.8125 18.1758C16.8577 18.1758 18.5156 16.5178 18.5156 14.4727C18.5156 12.4275 16.8577 10.7695 14.8125 10.7695C12.7673 10.7695 11.1094 12.4275 11.1094 14.4727C11.1094 16.5178 12.7673 18.1758 14.8125 18.1758Z" fill="#2A6377"/>
<path d="M19.75 24.3477C21.7952 24.3477 23.4531 22.6897 23.4531 20.6445C23.4531 18.5994 21.7952 16.9414 19.75 16.9414C17.7048 16.9414 16.0469 18.5994 16.0469 20.6445C16.0469 22.6897 17.7048 24.3477 19.75 24.3477Z" fill="#2A6377"/>
<path d="M37.0312 47.8008V71.2539H34.5625V50.2695C34.5625 49.6148 34.8226 48.9868 35.2856 48.5239C35.7486 48.0609 36.3765 47.8008 37.0312 47.8008Z" fill="#D1E3EE"/>
<path d="M61.1239 50.1879V66.3163H58.6552V52.6567C58.6552 52.0019 58.9153 51.374 59.3782 50.911C59.8412 50.448 60.4691 50.1879 61.1239 50.1879Z" fill="#D1E3EE"/>
</svg>
