<svg width="700" height="212" viewBox="0 0 700 212" fill="none" xmlns="http://www.w3.org/2000/svg">
<path d="M52.9032 215.581H-88C-88 175.674 -55.649 143.323 -15.742 143.323H52.9032V215.581Z" fill="#F16A57"/>
<path d="M340 141H201C201 182.974 235.026 217 277 217H340V141Z" fill="#BC8C79"/>
<path d="M483 72L483 215C522.764 215 555 182.765 555 143L555 72L483 72Z" fill="#D1B320"/>
<path d="M627.258 140.903L627.258 9.15527e-05C587.351 9.10768e-05 555 32.3511 555 72.2582L555 140.903L627.258 140.903Z" fill="#097F9A"/>
<path d="M131 0L131 140.903C170.907 140.903 203.258 108.552 203.258 68.6452L203.258 -3.1585e-06L131 0Z" fill="#65B6AF"/>
<path d="M554.903 72.2581C554.903 32.351 522.552 -2.82822e-06 482.645 -6.317e-06L414 -1.23182e-05C414 39.907 446.351 72.2581 486.258 72.2581L554.903 72.2581Z" fill="#BC8C79"/>
<path d="M627 140.903C666.907 140.903 699.258 108.552 699.258 68.6452L699.258 9.15527e-05C659.351 9.32971e-05 627 32.3511 627 72.2582L627 140.903Z" fill="#BFBFBF"/>
<rect x="343" width="70.4516" height="68.6452" fill="#2045A6"/>
<rect x="131" y="141" width="70" height="75" fill="#EA990A"/>
<circle cx="92" cy="178" r="39" fill="#636C8B"/>
<circle cx="588.032" cy="178.032" r="37.0323" fill="#BFBFBF"/>
<circle cx="273" cy="70" r="70" fill="#097F9A"/>
<path d="M258.426 57.5312C258.263 57.4661 257.856 57.4173 257.205 57.3848C256.587 57.3522 255.822 57.3197 254.91 57.2871C253.999 57.2546 253.022 57.2383 251.98 57.2383C250.939 57.2057 249.946 57.1895 249.002 57.1895C248.09 57.1895 247.277 57.1895 246.561 57.1895C245.844 57.1895 245.356 57.1895 245.096 57.1895C240.929 57.1895 236.746 57.2383 232.547 57.3359C232.384 58.9635 232.286 60.5911 232.254 62.2188C232.221 63.8138 232.205 65.4414 232.205 67.1016L254.373 66.8574L254.324 72.082C254.129 72.0169 253.527 71.9681 252.518 71.9355C251.541 71.8704 250.483 71.8379 249.344 71.8379C248.204 71.8053 247.114 71.7891 246.072 71.7891C245.031 71.7891 244.363 71.7891 244.07 71.7891C240.132 71.7891 236.16 71.8379 232.156 71.9355C232.156 73.4004 232.14 74.8652 232.107 76.3301C232.107 77.7624 232.107 79.2109 232.107 80.6758C232.107 80.9362 232.107 81.4408 232.107 82.1895C232.107 82.9382 232.124 83.7194 232.156 84.5332C232.189 85.3145 232.254 86.0469 232.352 86.7305C232.482 87.4141 232.645 87.8372 232.84 88H224.295C224.49 87.8047 224.653 87.1862 224.783 86.1445C224.913 85.0703 225.011 83.7845 225.076 82.2871C225.174 80.7897 225.223 79.1621 225.223 77.4043C225.255 75.6465 225.271 73.9701 225.271 72.375C225.271 70.7799 225.255 69.3802 225.223 68.1758C225.223 66.9388 225.223 66.0762 225.223 65.5879C225.223 65.2949 225.223 64.7904 225.223 64.0742C225.223 63.3581 225.206 62.5605 225.174 61.6816C225.174 60.8027 225.158 59.875 225.125 58.8984C225.092 57.8893 225.027 56.9616 224.93 56.1152C224.865 55.2689 224.767 54.5365 224.637 53.918C224.507 53.2669 224.344 52.8275 224.148 52.5996C224.051 52.502 223.937 52.4043 223.807 52.3066C223.709 52.209 223.611 52.1113 223.514 52.0137L258.963 52.1113L258.426 57.5312ZM287.918 64.2207C287.788 64.4486 287.658 64.9368 287.527 65.6855C287.43 66.4342 287.332 67.3294 287.234 68.3711C287.137 69.3802 287.055 70.487 286.99 71.6914C286.925 72.8958 286.86 74.0514 286.795 75.1582C286.762 76.2324 286.73 77.209 286.697 78.0879C286.697 78.9342 286.697 79.5527 286.697 79.9434C286.697 80.2689 286.697 80.8548 286.697 81.7012C286.697 82.515 286.73 83.3613 286.795 84.2402C286.893 85.1191 287.007 85.9167 287.137 86.6328C287.299 87.349 287.527 87.7721 287.82 87.9023L279.227 87.8535L279.422 85.5098C278.185 86.3887 276.834 87.1211 275.369 87.707C273.904 88.2604 272.407 88.5371 270.877 88.5371C269.347 88.5371 267.866 88.3581 266.434 88C265.034 87.6094 263.797 87.0234 262.723 86.2422C261.648 85.4609 260.786 84.4681 260.135 83.2637C259.484 82.0267 259.158 80.5456 259.158 78.8203C259.158 76.6393 259.256 74.4746 259.451 72.3262C259.679 70.1777 259.793 68.013 259.793 65.832C259.793 65.474 259.777 65.1159 259.744 64.7578C259.744 64.3997 259.712 64.0417 259.646 63.6836H267.898C267.573 64.237 267.329 65.1159 267.166 66.3203C267.003 67.5247 266.873 68.8105 266.775 70.1777C266.71 71.5449 266.661 72.8796 266.629 74.1816C266.629 75.4512 266.629 76.444 266.629 77.1602C266.629 78.3971 266.727 79.4225 266.922 80.2363C267.117 81.0501 267.443 81.7012 267.898 82.1895C268.387 82.6777 269.038 83.0195 269.852 83.2148C270.665 83.4102 271.691 83.5078 272.928 83.5078C273.611 83.5078 274.262 83.3939 274.881 83.166C275.532 82.9056 276.15 82.5801 276.736 82.1895C277.322 81.7988 277.859 81.3594 278.348 80.8711C278.836 80.3828 279.275 79.8945 279.666 79.4062C279.731 77.974 279.78 76.5579 279.812 75.1582C279.845 73.7585 279.861 72.3424 279.861 70.9102C279.861 70.6172 279.861 70.1452 279.861 69.4941C279.861 68.8105 279.845 68.1107 279.812 67.3945C279.78 66.6784 279.715 66.0273 279.617 65.4414C279.552 64.8229 279.454 64.416 279.324 64.2207H287.918ZM321.414 72.9609C321.414 75.207 321.3 77.4368 321.072 79.6504C320.877 81.8639 320.779 84.0938 320.779 86.3398C320.779 87.0885 320.828 87.821 320.926 88.5371H312.381C312.706 88.0163 312.951 87.1536 313.113 85.9492C313.276 84.7122 313.39 83.4102 313.455 82.043C313.553 80.6432 313.602 79.3086 313.602 78.0391C313.634 76.737 313.65 75.7441 313.65 75.0605C313.65 73.0749 313.162 71.5286 312.186 70.4219C311.209 69.2826 309.695 68.7129 307.645 68.7129C306.961 68.7129 306.294 68.8431 305.643 69.1035C305.024 69.3314 304.422 69.6406 303.836 70.0312C303.283 70.4219 302.745 70.8613 302.225 71.3496C301.736 71.8379 301.297 72.3262 300.906 72.8145C300.809 75.6465 300.76 78.4785 300.76 81.3105C300.76 81.5384 300.76 81.9941 300.76 82.6777C300.76 83.3288 300.776 84.0286 300.809 84.7773C300.841 85.526 300.89 86.2259 300.955 86.877C301.02 87.4954 301.134 87.8698 301.297 88H292.654C292.785 87.8047 292.915 87.3327 293.045 86.584C293.175 85.8027 293.289 84.8913 293.387 83.8496C293.484 82.7754 293.566 81.6361 293.631 80.4316C293.696 79.2272 293.745 78.0716 293.777 76.9648C293.842 75.8581 293.875 74.8815 293.875 74.0352C293.908 73.1888 293.924 72.6029 293.924 72.2773C293.924 72.0169 293.908 71.4798 293.875 70.666C293.875 69.8197 293.842 68.957 293.777 68.0781C293.712 67.1667 293.598 66.3366 293.436 65.5879C293.305 64.8392 293.094 64.416 292.801 64.3184L301.346 64.3672L301.199 66.7109C302.404 65.832 303.738 65.1159 305.203 64.5625C306.701 63.9766 308.214 63.6836 309.744 63.6836C311.242 63.6836 312.69 63.8464 314.09 64.1719C315.522 64.4648 316.775 64.9857 317.85 65.7344C318.924 66.4505 319.786 67.3945 320.438 68.5664C321.089 69.7383 321.414 71.2031 321.414 72.9609Z" fill="white"/>
<circle cx="59.2258" cy="71.3548" r="71.3548" fill="#BC8C79"/>
<path d="M42.1484 71.6016C42.2266 71.2578 42.2969 70.9219 42.3594 70.5938C42.4219 70.25 42.4531 69.8984 42.4531 69.5391C42.4531 68.8359 42.3281 68.2578 42.0781 67.8047C41.8281 67.3359 41.4844 66.9688 41.0469 66.7031C40.625 66.4219 40.1328 66.2344 39.5703 66.1406C39.0234 66.0312 38.4453 65.9766 37.8359 65.9766C37.4609 65.9766 37.0312 66.0078 36.5469 66.0703C36.0625 66.1172 35.5625 66.2031 35.0469 66.3281C34.5469 66.4375 34.0469 66.5859 33.5469 66.7734C33.0469 66.9609 32.6016 67.1953 32.2109 67.4766C31.8359 67.7578 31.5234 68.0938 31.2734 68.4844C31.0391 68.8594 30.9219 69.2891 30.9219 69.7734C30.9219 70.1953 31.0703 70.5625 31.3672 70.875C31.6797 71.1719 32.0703 71.4297 32.5391 71.6484C33.0234 71.8672 33.5625 72.0469 34.1562 72.1875C34.75 72.3281 35.3359 72.4531 35.9141 72.5625C36.4922 72.6562 37.0312 72.7344 37.5312 72.7969C38.0312 72.8438 38.4297 72.8906 38.7266 72.9375C39.1016 73 39.5547 73.0781 40.0859 73.1719C40.6328 73.25 41.1953 73.3594 41.7734 73.5C42.3516 73.6406 42.9219 73.8125 43.4844 74.0156C44.0625 74.2188 44.5781 74.4688 45.0312 74.7656C45.4844 75.0469 45.8516 75.3828 46.1328 75.7734C46.4141 76.1484 46.5547 76.5859 46.5547 77.0859C46.5547 77.6172 46.4062 78.0859 46.1094 78.4922C45.8281 78.8984 45.4453 79.2578 44.9609 79.5703C44.4922 79.8672 43.9609 80.1172 43.3672 80.3203C42.7891 80.5078 42.1953 80.6641 41.5859 80.7891C40.9922 80.9141 40.4219 81 39.875 81.0469C39.3281 81.0938 38.8672 81.1172 38.4922 81.1172C36.8359 81.1172 35.1953 80.9844 33.5703 80.7188C31.9453 80.4375 30.3594 79.9922 28.8125 79.3828C28.6562 79.3203 28.4766 79.25 28.2734 79.1719C28.0703 79.0781 27.8594 78.9844 27.6406 78.8906C27.4219 78.7969 27.2109 78.7188 27.0078 78.6562C26.8047 78.5938 26.625 78.5547 26.4688 78.5391C26.5625 78.4453 26.7031 78.3125 26.8906 78.1406C27.0938 77.9688 27.2891 77.7812 27.4766 77.5781C27.6797 77.375 27.8594 77.1875 28.0156 77.0156C28.1875 76.8281 28.2891 76.6875 28.3203 76.5938C29.6953 77.4375 31.1953 78.0625 32.8203 78.4688C34.4609 78.875 36.0859 79.0781 37.6953 79.0781C37.9609 79.0781 38.375 79.0625 38.9375 79.0312C39.5156 78.9844 40.0859 78.8984 40.6484 78.7734C41.2266 78.6484 41.7266 78.4766 42.1484 78.2578C42.5859 78.0234 42.8047 77.7188 42.8047 77.3438C42.8047 76.8438 42.5781 76.4453 42.125 76.1484C41.6875 75.8516 41.1016 75.6094 40.3672 75.4219C39.6328 75.2188 38.7969 75.0625 37.8594 74.9531C36.9219 74.8281 35.9609 74.6953 34.9766 74.5547C34.0078 74.4141 33.0547 74.25 32.1172 74.0625C31.1797 73.8594 30.3438 73.5938 29.6094 73.2656C28.875 72.9219 28.2812 72.4922 27.8281 71.9766C27.3906 71.4609 27.1719 70.8125 27.1719 70.0312C27.1719 69.2031 27.3359 68.4688 27.6641 67.8281C28.0078 67.1875 28.4609 66.625 29.0234 66.1406C29.6016 65.6562 30.25 65.25 30.9688 64.9219C31.7031 64.5938 32.4609 64.3281 33.2422 64.125C34.0391 63.9219 34.8281 63.7734 35.6094 63.6797C36.3906 63.5859 37.1094 63.5391 37.7656 63.5391C38.8594 63.5391 39.8984 63.625 40.8828 63.7969C41.8672 63.9688 42.7188 64.2812 43.4375 64.7344C44.1719 65.1875 44.75 65.8203 45.1719 66.6328C45.6094 67.4453 45.8281 68.4922 45.8281 69.7734C45.8281 70.0859 45.8125 70.3906 45.7812 70.6875C45.7656 70.9844 45.7422 71.2891 45.7109 71.6016H42.1484ZM66.0781 81C66.2344 80.7188 66.3594 80.3203 66.4531 79.8047C66.5625 79.2891 66.6406 78.75 66.6875 78.1875C66.75 77.625 66.7891 77.0781 66.8047 76.5469C66.8359 76 66.8516 75.5625 66.8516 75.2344C66.8516 74.8281 66.8125 74.4297 66.7344 74.0391C66.6719 73.6328 66.5547 73.2812 66.3828 72.9844C66.2109 72.6719 65.9688 72.4219 65.6562 72.2344C65.3438 72.0469 64.9453 71.9531 64.4609 71.9531C63.8672 71.9531 63.3047 72.1094 62.7734 72.4219C62.2422 72.7344 61.7734 73.0938 61.3672 73.5C61.4141 73.8594 61.4375 74.2031 61.4375 74.5312C61.4375 75.2344 61.4297 75.9297 61.4141 76.6172C61.3984 77.3047 61.3906 78 61.3906 78.7031C61.3906 79.0938 61.3906 79.4844 61.3906 79.875C61.4062 80.25 61.4453 80.625 61.5078 81H57.4062C57.5625 80.7188 57.6875 80.3203 57.7812 79.8047C57.8906 79.2891 57.9766 78.75 58.0391 78.1875C58.1016 77.625 58.1406 77.0781 58.1562 76.5469C58.1719 76 58.1797 75.5625 58.1797 75.2344C58.1797 74.8281 58.1406 74.4297 58.0625 74.0391C58 73.6328 57.8828 73.2812 57.7109 72.9844C57.5391 72.6719 57.2969 72.4219 56.9844 72.2344C56.6719 72.0469 56.2734 71.9531 55.7891 71.9531C55.1641 71.9531 54.5703 72.125 54.0078 72.4688C53.4609 72.8125 52.9844 73.2109 52.5781 73.6641C52.5469 74.3828 52.5234 75.1016 52.5078 75.8203C52.4922 76.5391 52.4844 77.2656 52.4844 78C52.4844 78.1094 52.4844 78.3281 52.4844 78.6562C52.4844 78.9688 52.4922 79.3047 52.5078 79.6641C52.5234 80.0234 52.5469 80.3594 52.5781 80.6719C52.6094 80.9688 52.6641 81.1484 52.7422 81.2109H48.5938C48.6562 81.1328 48.7188 80.9141 48.7812 80.5547C48.8438 80.1797 48.8984 79.7422 48.9453 79.2422C48.9922 78.7266 49.0312 78.1797 49.0625 77.6016C49.0938 77.0078 49.1172 76.4453 49.1328 75.9141C49.1641 75.3828 49.1797 74.9141 49.1797 74.5078C49.1953 74.1016 49.2031 73.8203 49.2031 73.6641C49.2031 73.5391 49.1953 73.2812 49.1797 72.8906C49.1797 72.4844 49.1641 72.0703 49.1328 71.6484C49.1016 71.2109 49.0469 70.8125 48.9688 70.4531C48.9062 70.0938 48.8047 69.8906 48.6641 69.8438L52.7656 69.8672C52.7344 70.0391 52.7188 70.2266 52.7188 70.4297C52.7188 70.6172 52.7109 70.8047 52.6953 70.9922C53.2734 70.5703 53.9141 70.2266 54.6172 69.9609C55.3359 69.6797 56.0625 69.5391 56.7969 69.5391C57.5781 69.5391 58.3125 69.7031 59 70.0312C59.7031 70.3438 60.2656 70.8438 60.6875 71.5312C61.2969 70.9531 62.0312 70.4766 62.8906 70.1016C63.7656 69.7266 64.625 69.5391 65.4688 69.5391C66.2188 69.5391 66.8828 69.6641 67.4609 69.9141C68.0391 70.1484 68.5234 70.4922 68.9141 70.9453C69.3047 71.3828 69.6016 71.9062 69.8047 72.5156C70.0078 73.125 70.1094 73.7969 70.1094 74.5312C70.1094 75.2344 70.0938 75.9297 70.0625 76.6172C70.0469 77.3047 70.0391 78 70.0391 78.7031C70.0391 79.0938 70.0469 79.4844 70.0625 79.875C70.0781 80.25 70.1172 80.625 70.1797 81H66.0781ZM73.1797 70.0312L77.3047 70.0547C77.2266 70.0703 77.1641 70.1406 77.1172 70.2656C77.0859 70.375 77.0547 70.4609 77.0234 70.5234C76.9141 70.9141 76.8281 71.3906 76.7656 71.9531C76.7188 72.5 76.6797 73.0781 76.6484 73.6875C76.6328 74.2812 76.6172 74.8594 76.6016 75.4219C76.6016 75.9844 76.6016 76.4766 76.6016 76.8984C76.6016 77.0391 76.6016 77.3281 76.6016 77.7656C76.6016 78.1875 76.6094 78.6406 76.625 79.125C76.6562 79.6094 76.6953 80.0547 76.7422 80.4609C76.7891 80.8516 76.8594 81.0938 76.9531 81.1875H72.8047C72.8828 81.0781 72.9609 80.8203 73.0391 80.4141C73.1172 80.0078 73.1797 79.5234 73.2266 78.9609C73.2891 78.3984 73.3438 77.7969 73.3906 77.1562C73.4375 76.5 73.4766 75.8828 73.5078 75.3047C73.5547 74.7109 73.5859 74.1875 73.6016 73.7344C73.6172 73.2656 73.625 72.9453 73.625 72.7734C73.625 72.6797 73.625 72.4922 73.625 72.2109C73.625 71.9297 73.6094 71.6406 73.5781 71.3438C73.5469 71.0312 73.5 70.75 73.4375 70.5C73.375 70.2344 73.2891 70.0781 73.1797 70.0312ZM75.2188 64.3594C75.4219 64.3594 75.6484 64.3906 75.8984 64.4531C76.1484 64.5156 76.375 64.6094 76.5781 64.7344C76.7969 64.8438 76.9766 65 77.1172 65.2031C77.2578 65.3906 77.3281 65.6094 77.3281 65.8594C77.3281 66.1094 77.2578 66.3281 77.1172 66.5156C76.9766 66.7031 76.7969 66.8594 76.5781 66.9844C76.375 67.0938 76.1484 67.1797 75.8984 67.2422C75.6484 67.3047 75.4219 67.3359 75.2188 67.3359C75 67.3359 74.7656 67.3047 74.5156 67.2422C74.2812 67.1797 74.0547 67.0938 73.8359 66.9844C73.6328 66.8594 73.4609 66.7031 73.3203 66.5156C73.1797 66.3281 73.1094 66.1094 73.1094 65.8594C73.1094 65.6094 73.1797 65.3906 73.3203 65.2031C73.4609 65 73.6328 64.8438 73.8359 64.7344C74.0547 64.6094 74.2812 64.5156 74.5156 64.4531C74.7656 64.3906 75 64.3594 75.2188 64.3594ZM79.7188 81.2109C79.7969 81.0859 79.875 80.7109 79.9531 80.0859C80.0312 79.4453 80.0938 78.6875 80.1406 77.8125C80.2031 76.9219 80.2578 75.9688 80.3047 74.9531C80.3516 73.9219 80.3906 72.9453 80.4219 72.0234C80.4688 71.1016 80.5 70.2891 80.5156 69.5859C80.5312 68.8828 80.5391 68.4062 80.5391 68.1562C80.5391 68.0156 80.5391 67.7344 80.5391 67.3125C80.5391 66.875 80.5234 66.4141 80.4922 65.9297C80.4766 65.4453 80.4375 65.0078 80.375 64.6172C80.3125 64.2109 80.2188 63.9688 80.0938 63.8906L84.5703 63.9375C84.4922 63.9531 84.4297 64.0469 84.3828 64.2188C84.3516 64.3906 84.3281 64.5078 84.3125 64.5703C84.1406 65.3516 84.0312 66.1484 83.9844 66.9609C83.9375 67.7578 83.8906 68.5547 83.8438 69.3516C83.7656 70.6797 83.7031 71.9922 83.6562 73.2891C83.625 74.5859 83.6094 75.8984 83.6094 77.2266C83.6094 77.3516 83.6094 77.6172 83.6094 78.0234C83.6094 78.4141 83.6172 78.8281 83.6328 79.2656C83.6484 79.7031 83.6719 80.1172 83.7031 80.5078C83.7344 80.8828 83.7891 81.1172 83.8672 81.2109H79.7188ZM93.3594 81.3516C92.5938 81.3516 91.7812 81.25 90.9219 81.0469C90.0625 80.8438 89.2656 80.5312 88.5312 80.1094C87.8125 79.6719 87.2109 79.125 86.7266 78.4688C86.2578 77.8125 86.0234 77.0312 86.0234 76.125C86.0234 75.0156 86.2422 74.0234 86.6797 73.1484C87.1172 72.2734 87.7031 71.5391 88.4375 70.9453C89.1719 70.3359 90.0234 69.875 90.9922 69.5625C91.9609 69.2344 92.9766 69.0703 94.0391 69.0703C94.8828 69.0703 95.6328 69.2109 96.2891 69.4922C96.9453 69.7578 97.4922 70.1406 97.9297 70.6406C98.3672 71.125 98.6953 71.7031 98.9141 72.375C99.1484 73.0469 99.2656 73.7891 99.2656 74.6016C99.2656 75.3828 99.1484 76.1328 98.9141 76.8516H89.1406C89.2969 77.3203 89.5391 77.7031 89.8672 78C90.2109 78.2969 90.5938 78.5312 91.0156 78.7031C91.4531 78.8594 91.9062 78.9688 92.375 79.0312C92.8594 79.0938 93.3125 79.125 93.7344 79.125C94 79.125 94.3516 79.1094 94.7891 79.0781C95.2422 79.0312 95.7031 78.9688 96.1719 78.8906C96.6406 78.7969 97.0781 78.6875 97.4844 78.5625C97.9062 78.4375 98.2188 78.2812 98.4219 78.0938L99.5703 80.1094C98.5391 80.5 97.5234 80.8047 96.5234 81.0234C95.5234 81.2422 94.4688 81.3516 93.3594 81.3516ZM93.3594 71.2734C92.8906 71.2734 92.4219 71.3672 91.9531 71.5547C91.5 71.7422 91.0859 71.9922 90.7109 72.3047C90.3359 72.6016 90.0078 72.9609 89.7266 73.3828C89.4453 73.7891 89.2422 74.2109 89.1172 74.6484H95.8203C95.8672 74.1797 95.8672 73.7422 95.8203 73.3359C95.7891 72.9141 95.6875 72.5547 95.5156 72.2578C95.3438 71.9453 95.0859 71.7031 94.7422 71.5312C94.3984 71.3594 93.9375 71.2734 93.3594 71.2734Z" fill="white"/>
<circle cx="411.484" cy="140.419" r="71.3548" fill="#636C8B"/>
<path d="M381.484 133.375C381.406 133.344 381.211 133.32 380.898 133.305C380.602 133.289 380.234 133.273 379.797 133.258C379.359 133.242 378.891 133.234 378.391 133.234C377.891 133.219 377.414 133.211 376.961 133.211C376.523 133.211 376.133 133.211 375.789 133.211C375.445 133.211 375.211 133.211 375.086 133.211C373.086 133.211 371.078 133.234 369.062 133.281C368.984 134.062 368.938 134.844 368.922 135.625C368.906 136.391 368.898 137.172 368.898 137.969L379.539 137.852L379.516 140.359C379.422 140.328 379.133 140.305 378.648 140.289C378.18 140.258 377.672 140.242 377.125 140.242C376.578 140.227 376.055 140.219 375.555 140.219C375.055 140.219 374.734 140.219 374.594 140.219C372.703 140.219 370.797 140.242 368.875 140.289C368.875 140.992 368.867 141.695 368.852 142.398C368.852 143.086 368.852 143.781 368.852 144.484C368.852 144.609 368.852 144.852 368.852 145.211C368.852 145.57 368.859 145.945 368.875 146.336C368.891 146.711 368.922 147.062 368.969 147.391C369.031 147.719 369.109 147.922 369.203 148H365.102C365.195 147.906 365.273 147.609 365.336 147.109C365.398 146.594 365.445 145.977 365.477 145.258C365.523 144.539 365.547 143.758 365.547 142.914C365.562 142.07 365.57 141.266 365.57 140.5C365.57 139.734 365.562 139.062 365.547 138.484C365.547 137.891 365.547 137.477 365.547 137.242C365.547 137.102 365.547 136.859 365.547 136.516C365.547 136.172 365.539 135.789 365.523 135.367C365.523 134.945 365.516 134.5 365.5 134.031C365.484 133.547 365.453 133.102 365.406 132.695C365.375 132.289 365.328 131.938 365.266 131.641C365.203 131.328 365.125 131.117 365.031 131.008C364.984 130.961 364.93 130.914 364.867 130.867C364.82 130.82 364.773 130.773 364.727 130.727L381.742 130.773L381.484 133.375ZM385.188 139.094C385.562 138.781 385.992 138.484 386.477 138.203C386.977 137.922 387.492 137.68 388.023 137.477C388.57 137.258 389.117 137.086 389.664 136.961C390.227 136.836 390.75 136.773 391.234 136.773V138.789C390.734 138.789 390.18 138.898 389.57 139.117C388.961 139.336 388.359 139.617 387.766 139.961C387.188 140.305 386.664 140.695 386.195 141.133C385.727 141.57 385.383 142.016 385.164 142.469C385.164 142.578 385.164 142.781 385.164 143.078C385.18 143.375 385.188 143.719 385.188 144.109C385.203 144.5 385.219 144.914 385.234 145.352C385.25 145.773 385.273 146.172 385.305 146.547C385.336 146.922 385.367 147.242 385.398 147.508C385.43 147.773 385.469 147.938 385.516 148H381.719C381.781 147.969 381.836 147.805 381.883 147.508C381.93 147.195 381.961 146.82 381.977 146.383C382.008 145.945 382.031 145.477 382.047 144.977C382.078 144.461 382.094 143.969 382.094 143.5C382.109 143.031 382.117 142.625 382.117 142.281C382.117 141.938 382.117 141.711 382.117 141.602C382.117 141.461 382.117 141.164 382.117 140.711C382.117 140.258 382.109 139.781 382.094 139.281C382.078 138.781 382.055 138.32 382.023 137.898C381.992 137.461 381.945 137.195 381.883 137.102H385.352C385.32 137.195 385.297 137.336 385.281 137.523C385.266 137.695 385.25 137.883 385.234 138.086C385.219 138.289 385.203 138.484 385.188 138.672C385.188 138.859 385.188 139 385.188 139.094ZM392.453 137.031L396.578 137.055C396.5 137.07 396.438 137.141 396.391 137.266C396.359 137.375 396.328 137.461 396.297 137.523C396.188 137.914 396.102 138.391 396.039 138.953C395.992 139.5 395.953 140.078 395.922 140.688C395.906 141.281 395.891 141.859 395.875 142.422C395.875 142.984 395.875 143.477 395.875 143.898C395.875 144.039 395.875 144.328 395.875 144.766C395.875 145.188 395.883 145.641 395.898 146.125C395.93 146.609 395.969 147.055 396.016 147.461C396.062 147.852 396.133 148.094 396.227 148.188H392.078C392.156 148.078 392.234 147.82 392.312 147.414C392.391 147.008 392.453 146.523 392.5 145.961C392.562 145.398 392.617 144.797 392.664 144.156C392.711 143.5 392.75 142.883 392.781 142.305C392.828 141.711 392.859 141.188 392.875 140.734C392.891 140.266 392.898 139.945 392.898 139.773C392.898 139.68 392.898 139.492 392.898 139.211C392.898 138.93 392.883 138.641 392.852 138.344C392.82 138.031 392.773 137.75 392.711 137.5C392.648 137.234 392.562 137.078 392.453 137.031ZM394.492 131.359C394.695 131.359 394.922 131.391 395.172 131.453C395.422 131.516 395.648 131.609 395.852 131.734C396.07 131.844 396.25 132 396.391 132.203C396.531 132.391 396.602 132.609 396.602 132.859C396.602 133.109 396.531 133.328 396.391 133.516C396.25 133.703 396.07 133.859 395.852 133.984C395.648 134.094 395.422 134.18 395.172 134.242C394.922 134.305 394.695 134.336 394.492 134.336C394.273 134.336 394.039 134.305 393.789 134.242C393.555 134.18 393.328 134.094 393.109 133.984C392.906 133.859 392.734 133.703 392.594 133.516C392.453 133.328 392.383 133.109 392.383 132.859C392.383 132.609 392.453 132.391 392.594 132.203C392.734 132 392.906 131.844 393.109 131.734C393.328 131.609 393.555 131.516 393.789 131.453C394.039 131.391 394.273 131.359 394.492 131.359ZM405.508 148.352C404.742 148.352 403.93 148.25 403.07 148.047C402.211 147.844 401.414 147.531 400.68 147.109C399.961 146.672 399.359 146.125 398.875 145.469C398.406 144.812 398.172 144.031 398.172 143.125C398.172 142.016 398.391 141.023 398.828 140.148C399.266 139.273 399.852 138.539 400.586 137.945C401.32 137.336 402.172 136.875 403.141 136.562C404.109 136.234 405.125 136.07 406.188 136.07C407.031 136.07 407.781 136.211 408.438 136.492C409.094 136.758 409.641 137.141 410.078 137.641C410.516 138.125 410.844 138.703 411.062 139.375C411.297 140.047 411.414 140.789 411.414 141.602C411.414 142.383 411.297 143.133 411.062 143.852H401.289C401.445 144.32 401.688 144.703 402.016 145C402.359 145.297 402.742 145.531 403.164 145.703C403.602 145.859 404.055 145.969 404.523 146.031C405.008 146.094 405.461 146.125 405.883 146.125C406.148 146.125 406.5 146.109 406.938 146.078C407.391 146.031 407.852 145.969 408.32 145.891C408.789 145.797 409.227 145.688 409.633 145.562C410.055 145.438 410.367 145.281 410.57 145.094L411.719 147.109C410.688 147.5 409.672 147.805 408.672 148.023C407.672 148.242 406.617 148.352 405.508 148.352ZM405.508 138.273C405.039 138.273 404.57 138.367 404.102 138.555C403.648 138.742 403.234 138.992 402.859 139.305C402.484 139.602 402.156 139.961 401.875 140.383C401.594 140.789 401.391 141.211 401.266 141.648H407.969C408.016 141.18 408.016 140.742 407.969 140.336C407.938 139.914 407.836 139.555 407.664 139.258C407.492 138.945 407.234 138.703 406.891 138.531C406.547 138.359 406.086 138.273 405.508 138.273ZM427.562 140.781C427.562 141.859 427.508 142.93 427.398 143.992C427.305 145.055 427.258 146.125 427.258 147.203C427.258 147.562 427.281 147.914 427.328 148.258H423.227C423.383 148.008 423.5 147.594 423.578 147.016C423.656 146.422 423.711 145.797 423.742 145.141C423.789 144.469 423.812 143.828 423.812 143.219C423.828 142.594 423.836 142.117 423.836 141.789C423.836 140.836 423.602 140.094 423.133 139.562C422.664 139.016 421.938 138.742 420.953 138.742C420.625 138.742 420.305 138.805 419.992 138.93C419.695 139.039 419.406 139.188 419.125 139.375C418.859 139.562 418.602 139.773 418.352 140.008C418.117 140.242 417.906 140.477 417.719 140.711C417.672 142.07 417.648 143.43 417.648 144.789C417.648 144.898 417.648 145.117 417.648 145.445C417.648 145.758 417.656 146.094 417.672 146.453C417.688 146.812 417.711 147.148 417.742 147.461C417.773 147.758 417.828 147.938 417.906 148H413.758C413.82 147.906 413.883 147.68 413.945 147.32C414.008 146.945 414.062 146.508 414.109 146.008C414.156 145.492 414.195 144.945 414.227 144.367C414.258 143.789 414.281 143.234 414.297 142.703C414.328 142.172 414.344 141.703 414.344 141.297C414.359 140.891 414.367 140.609 414.367 140.453C414.367 140.328 414.359 140.07 414.344 139.68C414.344 139.273 414.328 138.859 414.297 138.438C414.266 138 414.211 137.602 414.133 137.242C414.07 136.883 413.969 136.68 413.828 136.633L417.93 136.656L417.859 137.781C418.438 137.359 419.078 137.016 419.781 136.75C420.5 136.469 421.227 136.328 421.961 136.328C422.68 136.328 423.375 136.406 424.047 136.562C424.734 136.703 425.336 136.953 425.852 137.312C426.367 137.656 426.781 138.109 427.094 138.672C427.406 139.234 427.562 139.938 427.562 140.781ZM440.875 148C440.953 147.797 441 147.539 441.016 147.227C441.047 146.898 441.062 146.625 441.062 146.406C440.406 146.891 439.672 147.25 438.859 147.484C438.047 147.703 437.234 147.812 436.422 147.812C435.641 147.812 434.828 147.703 433.984 147.484C433.141 147.25 432.367 146.906 431.664 146.453C430.961 146 430.375 145.438 429.906 144.766C429.453 144.078 429.227 143.281 429.227 142.375C429.227 141.406 429.484 140.562 430 139.844C430.531 139.109 431.188 138.5 431.969 138.016C432.766 137.531 433.633 137.172 434.57 136.938C435.508 136.688 436.391 136.562 437.219 136.562C437.875 136.562 438.523 136.641 439.164 136.797C439.82 136.953 440.438 137.211 441.016 137.57C441 137.414 440.984 137.148 440.969 136.773C440.969 136.383 440.953 135.945 440.922 135.461C440.906 134.961 440.875 134.445 440.828 133.914C440.797 133.383 440.75 132.891 440.688 132.438C440.625 131.969 440.547 131.578 440.453 131.266C440.375 130.953 440.281 130.773 440.172 130.727L444.625 130.703C444.516 130.781 444.43 131 444.367 131.359C444.305 131.719 444.258 132.117 444.227 132.555C444.211 132.992 444.195 133.414 444.18 133.82C444.18 134.211 444.18 134.484 444.18 134.641C444.18 134.969 444.188 135.508 444.203 136.258C444.219 137.008 444.242 137.859 444.273 138.812C444.32 139.75 444.367 140.734 444.414 141.766C444.461 142.781 444.508 143.727 444.555 144.602C444.617 145.477 444.688 146.227 444.766 146.852C444.844 147.477 444.922 147.859 445 148H440.875ZM437.008 145.68C437.352 145.68 437.758 145.617 438.227 145.492C438.711 145.352 439.164 145.156 439.586 144.906C440.008 144.656 440.367 144.359 440.664 144.016C440.961 143.672 441.109 143.289 441.109 142.867C441.109 142.617 441.117 142.359 441.133 142.094C441.148 141.828 441.141 141.578 441.109 141.344C441.047 140.922 440.891 140.555 440.641 140.242C440.391 139.93 440.086 139.672 439.727 139.469C439.383 139.266 439.008 139.117 438.602 139.023C438.195 138.914 437.797 138.859 437.406 138.859C436.875 138.859 436.328 138.93 435.766 139.07C435.219 139.211 434.719 139.43 434.266 139.727C433.812 140.023 433.438 140.398 433.141 140.852C432.859 141.305 432.719 141.844 432.719 142.469C432.719 143.047 432.852 143.539 433.117 143.945C433.383 144.352 433.719 144.688 434.125 144.953C434.531 145.203 434.984 145.391 435.484 145.516C436 145.625 436.508 145.68 437.008 145.68ZM456.438 141.086C456.531 140.82 456.609 140.547 456.672 140.266C456.734 139.969 456.766 139.672 456.766 139.375C456.766 138.719 456.586 138.234 456.227 137.922C455.883 137.594 455.383 137.43 454.727 137.43C454.352 137.43 453.906 137.477 453.391 137.57C452.891 137.648 452.414 137.789 451.961 137.992C451.508 138.195 451.117 138.461 450.789 138.789C450.477 139.117 450.32 139.523 450.32 140.008C450.32 140.367 450.492 140.672 450.836 140.922C451.195 141.156 451.609 141.352 452.078 141.508C452.547 141.648 453.016 141.758 453.484 141.836C453.969 141.914 454.336 141.977 454.586 142.023C454.977 142.102 455.469 142.203 456.062 142.328C456.672 142.438 457.258 142.609 457.82 142.844C458.383 143.062 458.867 143.344 459.273 143.688C459.68 144.016 459.883 144.438 459.883 144.953C459.883 145.531 459.656 146.016 459.203 146.406C458.75 146.797 458.203 147.109 457.562 147.344C456.938 147.578 456.281 147.75 455.594 147.859C454.906 147.953 454.336 148 453.883 148C452.945 148 452.016 147.938 451.094 147.812C450.172 147.672 449.266 147.445 448.375 147.133C448.266 147.086 448.086 147.016 447.836 146.922C447.586 146.812 447.32 146.703 447.039 146.594C446.773 146.469 446.523 146.359 446.289 146.266C446.055 146.172 445.906 146.125 445.844 146.125C445.875 146.109 445.984 146.016 446.172 145.844C446.359 145.672 446.555 145.484 446.758 145.281C446.977 145.062 447.172 144.859 447.344 144.672C447.516 144.484 447.609 144.367 447.625 144.32C448.422 144.914 449.305 145.352 450.273 145.633C451.258 145.914 452.242 146.055 453.227 146.055C453.336 146.055 453.547 146.047 453.859 146.031C454.172 146 454.492 145.953 454.82 145.891C455.164 145.828 455.469 145.742 455.734 145.633C456 145.523 456.133 145.383 456.133 145.211C456.133 144.961 455.914 144.758 455.477 144.602C455.039 144.445 454.484 144.297 453.812 144.156C453.156 144.016 452.445 143.859 451.68 143.688C450.914 143.516 450.195 143.297 449.523 143.031C448.867 142.75 448.32 142.406 447.883 142C447.445 141.594 447.227 141.07 447.227 140.43C447.227 139.492 447.477 138.695 447.977 138.039C448.492 137.367 449.133 136.828 449.898 136.422C450.664 136 451.492 135.695 452.383 135.508C453.273 135.32 454.109 135.227 454.891 135.227C455.531 135.227 456.148 135.281 456.742 135.391C457.336 135.484 457.859 135.664 458.312 135.93C458.766 136.195 459.125 136.562 459.391 137.031C459.672 137.5 459.812 138.109 459.812 138.859C459.812 139.234 459.781 139.609 459.719 139.984C459.672 140.359 459.609 140.727 459.531 141.086H456.438Z" fill="white"/>
<circle cx="662.032" cy="178.032" r="37.0323" fill="#2045A6"/>
<path d="M649.027 174.895C649.027 175.551 648.834 176.107 648.447 176.564C648.061 177.01 647.557 177.385 646.936 177.689C646.314 177.982 645.617 178.217 644.844 178.393C644.07 178.557 643.297 178.68 642.523 178.762C641.762 178.844 641.035 178.896 640.344 178.92C639.664 178.943 639.102 178.955 638.656 178.955C638.656 179.365 638.65 179.77 638.639 180.168C638.639 180.555 638.639 180.953 638.639 181.363C638.639 181.469 638.639 181.65 638.639 181.908C638.639 182.166 638.645 182.441 638.656 182.734C638.668 183.016 638.691 183.279 638.727 183.525C638.773 183.771 638.832 183.93 638.902 184H635.826C635.896 183.93 635.955 183.701 636.002 183.314C636.049 182.928 636.084 182.465 636.107 181.926C636.143 181.387 636.16 180.801 636.16 180.168C636.172 179.535 636.178 178.938 636.178 178.375C636.178 177.801 636.172 177.291 636.16 176.846C636.16 176.4 636.16 176.096 636.16 175.932C636.16 175.826 636.16 175.639 636.16 175.369C636.172 175.1 636.172 174.789 636.16 174.438C636.16 174.086 636.148 173.717 636.125 173.33C636.113 172.943 636.084 172.586 636.037 172.258C635.99 171.93 635.926 171.654 635.844 171.432C635.762 171.209 635.662 171.08 635.545 171.045H638.076C638.24 171.045 638.457 171.045 638.727 171.045C639.008 171.033 639.23 171.039 639.395 171.062C640.016 171.062 640.631 171.074 641.24 171.098C641.85 171.121 642.465 171.162 643.086 171.221C643.449 171.256 643.848 171.303 644.281 171.361C644.727 171.42 645.166 171.508 645.6 171.625C646.045 171.73 646.473 171.871 646.883 172.047C647.293 172.223 647.656 172.439 647.973 172.697C648.289 172.955 648.541 173.266 648.729 173.629C648.928 173.992 649.027 174.414 649.027 174.895ZM645.846 174.877C645.846 174.537 645.723 174.256 645.477 174.033C645.23 173.799 644.914 173.611 644.527 173.471C644.152 173.318 643.725 173.207 643.244 173.137C642.775 173.055 642.307 173.002 641.838 172.979C641.381 172.943 640.959 172.926 640.572 172.926C640.186 172.926 639.881 172.926 639.658 172.926H638.814C638.732 173.641 638.686 174.355 638.674 175.07C638.662 175.785 638.656 176.5 638.656 177.215C639.125 177.215 639.588 177.209 640.045 177.197C640.514 177.186 640.982 177.162 641.451 177.127C641.791 177.104 642.213 177.062 642.717 177.004C643.221 176.945 643.701 176.84 644.158 176.688C644.627 176.535 645.025 176.318 645.354 176.037C645.682 175.744 645.846 175.357 645.846 174.877ZM656.023 184.211C656.223 184.152 656.346 184.023 656.393 183.824C656.439 183.613 656.469 183.426 656.48 183.262C655.953 183.426 655.42 183.549 654.881 183.631C654.342 183.713 653.803 183.754 653.264 183.754C652.912 183.754 652.49 183.725 651.998 183.666C651.518 183.607 651.055 183.496 650.609 183.332C650.176 183.168 649.801 182.939 649.484 182.646C649.18 182.354 649.027 181.967 649.027 181.486C649.027 181.076 649.174 180.725 649.467 180.432C649.771 180.139 650.158 179.898 650.627 179.711C651.096 179.512 651.623 179.359 652.209 179.254C652.795 179.148 653.369 179.066 653.932 179.008C654.494 178.949 655.021 178.914 655.514 178.902C656.006 178.891 656.393 178.879 656.674 178.867C656.674 178.703 656.674 178.545 656.674 178.393C656.686 178.24 656.691 178.082 656.691 177.918C656.691 177.625 656.639 177.373 656.533 177.162C656.428 176.939 656.281 176.758 656.094 176.617C655.918 176.477 655.707 176.377 655.461 176.318C655.215 176.248 654.957 176.213 654.688 176.213C654.43 176.213 654.148 176.248 653.844 176.318C653.551 176.389 653.27 176.494 653 176.635C652.73 176.775 652.496 176.957 652.297 177.18C652.098 177.391 651.975 177.637 651.928 177.918L649.713 177.619C649.924 177.08 650.217 176.623 650.592 176.248C650.967 175.873 651.389 175.568 651.857 175.334C652.338 175.1 652.848 174.93 653.387 174.824C653.926 174.707 654.465 174.648 655.004 174.648C655.52 174.648 656.018 174.713 656.498 174.842C656.99 174.971 657.424 175.17 657.799 175.439C658.186 175.697 658.49 176.031 658.713 176.441C658.947 176.852 659.064 177.338 659.064 177.9C659.064 178.498 659.053 179.096 659.029 179.693C659.018 180.279 659.012 180.871 659.012 181.469C659.012 181.574 659.012 181.768 659.012 182.049C659.012 182.318 659.018 182.605 659.029 182.91C659.053 183.203 659.082 183.479 659.117 183.736C659.152 183.982 659.205 184.141 659.275 184.211H656.023ZM651.418 181.486C651.418 181.662 651.512 181.797 651.699 181.891C651.887 181.984 652.104 182.061 652.35 182.119C652.607 182.166 652.859 182.195 653.105 182.207C653.352 182.219 653.527 182.225 653.633 182.225C654.125 182.225 654.623 182.189 655.127 182.119C655.631 182.049 656.117 181.938 656.586 181.785C656.598 181.574 656.604 181.363 656.604 181.152C656.615 180.941 656.621 180.736 656.621 180.537L656.164 180.52C656.059 180.52 655.865 180.525 655.584 180.537C655.314 180.537 655.004 180.549 654.652 180.572C654.301 180.584 653.932 180.613 653.545 180.66C653.17 180.695 652.824 180.748 652.508 180.818C652.191 180.889 651.928 180.982 651.717 181.1C651.518 181.205 651.418 181.334 651.418 181.486ZM663.406 177.32C663.688 177.086 664.01 176.863 664.373 176.652C664.748 176.441 665.135 176.26 665.533 176.107C665.943 175.943 666.354 175.814 666.764 175.721C667.186 175.627 667.578 175.58 667.941 175.58V177.092C667.566 177.092 667.15 177.174 666.693 177.338C666.236 177.502 665.785 177.713 665.34 177.971C664.906 178.229 664.514 178.521 664.162 178.85C663.811 179.178 663.553 179.512 663.389 179.852C663.389 179.934 663.389 180.086 663.389 180.309C663.4 180.531 663.406 180.789 663.406 181.082C663.418 181.375 663.43 181.686 663.441 182.014C663.453 182.33 663.471 182.629 663.494 182.91C663.518 183.191 663.541 183.432 663.564 183.631C663.588 183.83 663.617 183.953 663.652 184H660.805C660.852 183.977 660.893 183.854 660.928 183.631C660.963 183.396 660.986 183.115 660.998 182.787C661.021 182.459 661.039 182.107 661.051 181.732C661.074 181.346 661.086 180.977 661.086 180.625C661.098 180.273 661.104 179.969 661.104 179.711C661.104 179.453 661.104 179.283 661.104 179.201C661.104 179.096 661.104 178.873 661.104 178.533C661.104 178.193 661.098 177.836 661.086 177.461C661.074 177.086 661.057 176.74 661.033 176.424C661.01 176.096 660.975 175.896 660.928 175.826H663.529C663.506 175.896 663.488 176.002 663.477 176.143C663.465 176.271 663.453 176.412 663.441 176.564C663.43 176.717 663.418 176.863 663.406 177.004C663.406 177.145 663.406 177.25 663.406 177.32ZM672.705 177.654C672.682 178.252 672.658 178.855 672.635 179.465C672.611 180.062 672.6 180.66 672.6 181.258C672.6 181.457 672.641 181.627 672.723 181.768C672.805 181.908 672.91 182.025 673.039 182.119C673.18 182.201 673.332 182.26 673.496 182.295C673.672 182.33 673.848 182.348 674.023 182.348C674.246 182.348 674.463 182.33 674.674 182.295C674.896 182.26 675.113 182.213 675.324 182.154L675.043 184.035C674.363 184.035 673.725 184.018 673.127 183.982C672.529 183.936 672.008 183.807 671.562 183.596C671.117 183.385 670.766 183.051 670.508 182.594C670.25 182.125 670.121 181.469 670.121 180.625C670.121 180.133 670.133 179.641 670.156 179.148C670.191 178.645 670.232 178.146 670.279 177.654L667.678 177.672L667.801 175.949C668.223 175.984 668.65 176.008 669.084 176.02C669.518 176.02 669.951 176.02 670.385 176.02C670.408 175.68 670.426 175.352 670.438 175.035C670.449 174.707 670.455 174.373 670.455 174.033C670.455 173.963 670.455 173.822 670.455 173.611C670.455 173.4 670.443 173.184 670.42 172.961C670.396 172.727 670.361 172.516 670.314 172.328C670.268 172.141 670.203 172.029 670.121 171.994L673.355 172.047C673.309 172.047 673.273 172.082 673.25 172.152C673.227 172.223 673.203 172.275 673.18 172.311C673.109 172.533 673.051 172.803 673.004 173.119C672.969 173.436 672.934 173.77 672.898 174.121C672.875 174.461 672.852 174.795 672.828 175.123C672.816 175.439 672.805 175.721 672.793 175.967C673.191 175.943 673.596 175.926 674.006 175.914C674.416 175.891 674.82 175.832 675.219 175.738V177.637L672.705 177.654ZM686.855 175.176C686.809 175.246 686.773 175.41 686.75 175.668C686.727 175.926 686.709 176.207 686.697 176.512C686.686 176.805 686.68 177.092 686.68 177.373C686.68 177.643 686.68 177.83 686.68 177.936C686.68 178.896 686.686 179.857 686.697 180.818C686.709 181.768 686.715 182.717 686.715 183.666C686.715 184.393 686.551 185.025 686.223 185.564C685.906 186.115 685.49 186.566 684.975 186.918C684.459 187.281 683.879 187.551 683.234 187.727C682.59 187.902 681.945 187.99 681.301 187.99C680.586 187.99 679.871 187.984 679.156 187.973C678.453 187.961 677.75 187.949 677.047 187.938L677.223 185.898C677.398 185.969 677.645 186.033 677.961 186.092C678.289 186.162 678.629 186.215 678.98 186.25C679.332 186.297 679.672 186.332 680 186.355C680.328 186.379 680.598 186.391 680.809 186.391C681.359 186.391 681.852 186.344 682.285 186.25C682.719 186.156 683.088 185.992 683.393 185.758C683.697 185.535 683.932 185.225 684.096 184.826C684.26 184.428 684.342 183.93 684.342 183.332C684.342 183.227 684.336 183.121 684.324 183.016C684.324 182.898 684.318 182.787 684.307 182.682C683.838 183.021 683.322 183.273 682.76 183.438C682.197 183.602 681.629 183.684 681.055 183.684C680.211 183.684 679.508 183.555 678.945 183.297C678.395 183.027 677.955 182.664 677.627 182.207C677.299 181.738 677.064 181.188 676.924 180.555C676.795 179.91 676.73 179.213 676.73 178.463C676.73 178.1 676.742 177.736 676.766 177.373C676.789 177.01 676.801 176.646 676.801 176.283C676.801 176.119 676.789 175.943 676.766 175.756C676.754 175.557 676.695 175.393 676.59 175.264L679.789 175.281C679.695 175.434 679.607 175.656 679.525 175.949C679.455 176.242 679.396 176.553 679.35 176.881C679.303 177.209 679.268 177.531 679.244 177.848C679.221 178.152 679.209 178.398 679.209 178.586C679.209 179.055 679.238 179.488 679.297 179.887C679.367 180.285 679.496 180.637 679.684 180.941C679.871 181.234 680.123 181.469 680.439 181.645C680.768 181.809 681.189 181.891 681.705 181.891C681.916 181.891 682.156 181.873 682.426 181.838C682.695 181.803 682.953 181.738 683.199 181.645C683.445 181.539 683.662 181.404 683.85 181.24C684.037 181.076 684.148 180.865 684.184 180.607C684.219 180.396 684.236 180.186 684.236 179.975C684.236 179.752 684.236 179.541 684.236 179.342C684.236 179.166 684.225 178.873 684.201 178.463C684.189 178.041 684.166 177.613 684.131 177.18C684.096 176.734 684.043 176.324 683.973 175.949C683.914 175.562 683.838 175.316 683.744 175.211L686.855 175.176Z" fill="white"/>
</svg>
