<svg width="89" height="90" viewBox="0 0 89 90" fill="none" xmlns="http://www.w3.org/2000/svg">
<g clip-path="url(#clip0)">
<path d="M35.8256 83.0181L28.9254 81.6037L24.9328 85.7389L11.3226 74.9969L20.3997 68.8022L30.0513 58.2401C31.6687 56.47 34.528 56.7253 35.8059 58.7548L47.2406 71.8687C48.9686 73.8507 48.4798 76.9144 46.22 78.2602L39.4835 82.2719C38.3074 82.9828 37.1877 83.0432 35.8256 83.0181Z" fill="#FFE7CF"/>
<path d="M47.2405 71.8685L44.4504 68.6683L32.8148 75.6024C31.6387 76.3134 30.519 76.3738 29.1562 76.3487L23.113 75.6982L17.8927 80.1817L24.9334 85.7388L28.9254 81.6029L35.8255 83.018C37.1876 83.0424 38.308 82.9827 39.4834 82.2717L46.2199 78.2601C48.4797 76.9143 48.9686 73.8506 47.2405 71.8685Z" fill="#EFD5BD"/>
<path d="M46.9044 72.1482C45.5572 70.0589 43.916 71.1161 42.5689 69.0261C41.2217 66.9367 42.8629 65.8788 41.5157 63.7895C40.1679 61.6995 38.5274 62.7574 37.1802 60.6674C35.8323 58.5767 37.4735 57.5188 36.1257 55.4288C35.302 54.1516 33.8102 51.5143 32.9017 51.1517L25.6301 54.7443L38.2843 74.702C39.5187 76.6175 42.0725 77.1695 43.988 75.9344L46.4094 74.374C47.1488 73.8967 47.3892 72.908 46.9152 72.1658C46.9118 72.1597 46.9085 72.1543 46.9044 72.1482Z" fill="#7AB0DC"/>
<path d="M25.9873 57.8342L20.2748 61.359C19.1911 62.0278 17.7699 61.691 17.101 60.6073L13.8716 55.3734C13.2028 54.2897 13.5396 52.8685 14.6233 52.1997L20.3359 48.6749C21.0067 48.2614 21.8861 48.4692 22.3003 49.1401L26.4524 55.8698C26.8666 56.5407 26.6582 57.42 25.9873 57.8342Z" fill="#8CB9DD"/>
<path d="M29.4923 39.136L17.8975 46.2908C16.371 47.2319 15.8977 49.2323 16.8389 50.758L22.5569 60.0252C23.4987 61.551 25.4984 62.0249 27.0248 61.0831L38.6197 53.929L75.294 45.9458L53.0773 9.93896L29.4923 39.136Z" fill="#B3D7F4"/>
<path d="M70.0596 37.462L33.574 45.7521C33.574 45.7521 21.0122 53.5024 19.2162 54.6113L22.5569 60.0251C23.4981 61.5508 25.4984 62.0248 27.0242 61.083L38.6198 53.9289L75.2941 45.9457L70.0596 37.462Z" fill="#8FC3EC"/>
<path d="M38.6197 53.9289L27.0242 61.083C25.4984 62.0248 23.4981 61.5509 22.5569 60.0251L16.839 50.7579C15.8972 49.2322 16.3711 47.2318 17.8969 46.2907L29.4924 39.1359L38.6197 53.9289Z" fill="#FD715C"/>
<path d="M33.574 45.7521C33.574 45.7521 21.0122 53.5024 19.2162 54.6113L22.5569 60.0251C23.4981 61.5508 25.4984 62.0248 27.0242 61.083L32.8216 57.5059L38.6198 53.9289L33.574 45.7521Z" fill="#EE2526"/>
<path d="M77.4941 48.5045L75.9113 49.4809C75.091 49.9868 74.0155 49.7322 73.5096 48.9119L49.6259 10.2039C49.1193 9.38299 49.3739 8.30811 50.1949 7.80156L51.7777 6.82514C52.5979 6.31859 53.6735 6.57322 54.1793 7.39415L78.0631 46.1021C78.5696 46.9224 78.3143 47.998 77.4941 48.5045Z" fill="#FD715C"/>
<path d="M78.063 46.1019L74.1342 39.7334L69.5801 42.5438L73.5095 48.9117C74.0154 49.7319 75.091 49.9865 75.9112 49.4807L77.494 48.5042C78.3143 47.9977 78.5696 46.9221 78.063 46.1019Z" fill="#EE2526"/>
<path d="M43.3057 77.4184C44.1687 78.8314 46.0143 79.2775 47.4273 78.4138L51.7968 75.7425C53.2091 74.8795 53.6546 73.0353 52.7915 71.623C51.9285 70.2099 50.0829 69.7645 48.6706 70.6275L44.3004 73.2988C42.8888 74.1618 42.4433 76.006 43.3057 77.4184Z" fill="#FFE7CF"/>
<path d="M52.7914 71.6228C52.4377 71.0436 51.9175 70.6301 51.3316 70.3999C51.485 71.5413 50.9717 72.7194 49.9253 73.3591L45.5552 76.0303C44.7213 76.5396 43.7388 76.5898 42.8948 76.2585C42.9484 76.6577 43.0822 77.0529 43.3056 77.4189C44.1686 78.8319 46.0142 79.2774 47.4272 78.4136L51.7967 75.7424C53.209 74.8794 53.6538 73.0352 52.7914 71.6228Z" fill="#EFD5BD"/>
<path d="M41.4343 71.5195C42.3102 72.9543 44.1836 73.4065 45.6177 72.5299L49.9097 69.9062C51.3431 69.0303 51.7954 67.1582 50.9201 65.7241C50.0442 64.2901 48.1708 63.8378 46.7367 64.7144L42.444 67.3382C41.0106 68.2141 40.5583 70.0861 41.4343 71.5195Z" fill="#FFE7CF"/>
<path d="M50.9201 65.7242C50.5711 65.1531 50.0632 64.741 49.488 64.5026C49.634 65.6542 49.1132 66.8378 48.0587 67.4821L43.766 70.1059C42.9029 70.6335 41.8824 70.6769 41.0139 70.3177C41.0662 70.7312 41.2027 71.1407 41.4342 71.5196C42.3102 72.9543 44.1836 73.4066 45.6176 72.53L49.9097 69.9062C51.3431 69.0303 51.7953 67.1583 50.9201 65.7242Z" fill="#EFD5BD"/>
<path d="M38.2347 66.361C39.1106 67.7951 40.984 68.248 42.4181 67.3714L46.7108 64.747C48.1442 63.8711 48.5958 61.999 47.7205 60.5656C46.8446 59.1308 44.9712 58.6786 43.5371 59.5552L39.2444 62.179C37.811 63.0549 37.3587 64.9269 38.2347 66.361Z" fill="#FFE7CF"/>
<path d="M47.7205 60.5656C47.379 60.0061 46.8847 59.598 46.3245 59.3577C46.4508 60.495 45.9307 61.6561 44.8897 62.2924L40.5977 64.9161C39.7224 65.4512 38.6856 65.4885 37.8103 65.1137C37.8578 65.5421 37.9943 65.9679 38.234 66.3604C39.1106 67.7951 40.9833 68.2473 42.4181 67.3707L46.7108 64.747C48.1442 63.8711 48.5958 61.999 47.7205 60.5656Z" fill="#EFD5BD"/>
<path d="M35.2185 61.0703C36.0944 62.5044 37.9678 62.9566 39.4019 62.08L43.6947 59.4563C45.1281 58.5804 45.5803 56.7083 44.7044 55.2742C43.8284 53.8402 41.955 53.3879 40.5209 54.2646L36.2282 56.8883C34.7948 57.7642 34.3432 59.6362 35.2185 61.0703Z" fill="#FFE7CF"/>
<path d="M44.7044 55.274C44.3018 54.614 43.6866 54.1652 43.0008 53.9547C43.2629 55.1824 42.7462 56.4936 41.6149 57.1855L37.3222 59.8092C36.5481 60.2825 35.6464 60.3653 34.8424 60.1181C34.9123 60.4461 35.0346 60.768 35.2186 61.0701C36.0945 62.5042 37.9679 62.9564 39.402 62.0798L43.6947 59.4561C45.1281 58.5802 45.5804 56.7081 44.7044 55.274Z" fill="#EFD5BD"/>
<path d="M41.6583 64.7512L40.8625 65.2374C39.6097 66.0033 37.9909 65.636 37.2454 64.4178L35.9267 62.2612C35.281 61.2061 33.8761 60.8924 32.7958 61.5625C31.7114 69.522 20.3997 68.8022 20.3997 68.8022L27.4091 58.2449C27.8716 57.445 28.5282 56.7687 29.3185 56.2784L33.2745 53.8251C35.1975 52.6328 37.6976 53.1896 38.8485 55.0677L42.577 61.1524C43.3239 62.3726 42.9124 63.9846 41.6583 64.7512Z" fill="#FFE7CF"/>
<path d="M42.5763 61.1529L42.5458 61.1027C42.3298 61.4497 42.0324 61.7546 41.6583 61.9834L40.8618 62.4702C39.6097 63.2355 37.9909 62.8688 37.2454 61.65L35.9267 59.4941C35.281 58.4382 33.8761 58.1252 32.7958 58.7947C32.3408 62.1328 30.2997 65.3316 28.0216 67.5228C30.3262 66.5104 32.3653 64.7191 32.7958 61.5624C33.8761 60.8922 35.281 61.2059 35.9267 62.2611L37.2454 64.4177C37.9909 65.6358 39.6097 66.0032 40.8618 65.2379L41.6583 64.751C42.9124 63.9844 43.3239 62.3725 42.5763 61.1529Z" fill="#EFD5BD"/>
<path d="M25.1521 85.9988L14.0027 72.7498L17.6741 69.6603C17.7896 69.5632 17.9627 69.5781 18.0605 69.6935L28.8568 82.5236C28.9539 82.639 28.939 82.8121 28.8236 82.9099L25.1521 85.9988Z" fill="#CDD6DF"/>
<path d="M28.8562 82.5237L23.1131 75.6982L19.2318 78.9642L25.1522 85.9995L28.8229 82.91C28.939 82.8122 28.954 82.6391 28.8562 82.5237Z" fill="#96A4AA"/>
<path d="M71.148 23.8614C70.7033 23.8614 70.2694 23.6373 70.0195 23.2313C69.6365 22.6086 69.8307 21.7938 70.4534 21.4108L77.6252 16.9992C78.2478 16.6163 79.0626 16.8105 79.4449 17.4331C79.8279 18.0551 79.6337 18.8699 79.0117 19.2529L71.84 23.6645C71.6233 23.7982 71.3843 23.8614 71.148 23.8614Z" fill="#F2D831"/>
<path d="M87.6786 34.6627C87.6358 34.6627 87.5924 34.6607 87.5489 34.6566L77.0344 33.6347C76.3071 33.564 75.7748 32.9176 75.8454 32.1897C75.916 31.4632 76.5631 30.9295 77.2903 31.0014L87.8049 32.0227C88.5321 32.0933 89.0645 32.7404 88.9939 33.4676C88.9273 34.1514 88.3515 34.6627 87.6786 34.6627Z" fill="#F2D831"/>
<path d="M65.1299 14.0816C64.9704 14.0816 64.8081 14.0524 64.6505 13.9913C63.9695 13.7265 63.6327 12.9592 63.8975 12.2788L67.7272 2.4331C67.992 1.75205 68.7593 1.41593 69.4396 1.68007C70.1207 1.94489 70.4582 2.7115 70.1934 3.39255L66.3637 13.2376C66.16 13.7611 65.6596 14.0816 65.1299 14.0816Z" fill="#F2D831"/>
<path d="M25.9479 85.8753L13.8974 71.7396C13.8017 71.6269 13.636 71.6044 13.5131 71.688L0.679016 81.8189C0.250557 82.157 0 82.6738 0 83.2204V87.342C0 88.3279 0.799202 89.1271 1.78581 89.1271H22.7803C23.3208 89.1271 23.8328 88.882 24.1723 88.4603L25.9357 86.2651C26.0396 86.1578 26.0443 85.9887 25.9479 85.8753Z" fill="#8CB9DD"/>
<path d="M25.9479 85.8753L20.234 79.1721L11.8217 89.1271H22.7803C23.3208 89.1271 23.8328 88.882 24.1723 88.4603L25.9357 86.2651C26.0396 86.1578 26.0443 85.9887 25.9479 85.8753Z" fill="#7AB0DC"/>
</g>
<defs>
<clipPath id="clip0">
<rect width="89" height="89" fill="white" transform="translate(0 0.894531)"/>
</clipPath>
</defs>
</svg>
