<svg width="1440" height="894" viewBox="0 0 1440 894" fill="none" xmlns="http://www.w3.org/2000/svg">
<rect width="1440" height="894" fill="#FAFAFA"/>
<g opacity="0.5">
<path d="M822.719 151.839C822.719 144.539 816.801 138.621 809.5 138.621C802.2 138.621 796.281 144.539 796.281 151.839H822.719Z" fill="#FFCB7C"/>
<path d="M826.064 143.168C826.21 143.521 826.552 143.735 826.912 143.735C827.029 143.735 827.148 143.712 827.263 143.665L829.772 142.626C830.241 142.432 830.463 141.895 830.269 141.426C830.075 140.958 829.538 140.735 829.069 140.93L826.561 141.969C826.092 142.163 825.87 142.7 826.064 143.168Z" fill="black"/>
<path d="M832.082 150.922H823.606C823.131 143.553 816.987 137.703 809.5 137.703C802.013 137.703 795.869 143.553 795.394 150.922H786.918C786.411 150.922 786 151.333 786 151.84C786 152.347 786.411 152.758 786.918 152.758H805.369C805.876 152.758 806.287 152.347 806.287 151.84C806.287 151.333 805.876 150.922 805.369 150.922H797.233C797.705 144.566 803.026 139.539 809.5 139.539C815.974 139.539 821.295 144.566 821.767 150.922H813.631C813.124 150.922 812.713 151.333 812.713 151.84C812.713 152.347 813.124 152.758 813.631 152.758H832.082C832.589 152.758 833 152.347 833 151.84C833 151.333 832.589 150.922 832.082 150.922Z" fill="black"/>
<path d="M809.5 135.504C810.007 135.504 810.418 135.093 810.418 134.586V125.918C810.418 125.411 810.007 125 809.5 125C808.993 125 808.582 125.411 808.582 125.918V134.586C808.582 135.093 808.993 135.504 809.5 135.504Z" fill="black"/>
<path d="M816.361 135.275C816.476 135.323 816.595 135.345 816.712 135.345C817.072 135.345 817.414 135.132 817.56 134.778L818.599 132.27C818.793 131.801 818.571 131.264 818.103 131.07C817.634 130.877 817.097 131.099 816.903 131.567L815.864 134.076C815.67 134.544 815.893 135.081 816.361 135.275Z" fill="black"/>
<path d="M821.7 140.558C821.935 140.558 822.17 140.468 822.349 140.289L828.566 134.072C828.924 133.713 828.924 133.132 828.566 132.773C828.207 132.415 827.626 132.415 827.268 132.773L821.051 138.99C820.692 139.349 820.692 139.93 821.051 140.289C821.23 140.468 821.465 140.558 821.7 140.558Z" fill="black"/>
<path d="M801.44 134.778C801.586 135.132 801.928 135.345 802.288 135.345C802.405 135.345 802.524 135.323 802.639 135.275C803.107 135.081 803.33 134.544 803.136 134.076L802.097 131.567C801.903 131.099 801.366 130.877 800.897 131.07C800.429 131.264 800.207 131.801 800.4 132.27L801.44 134.778Z" fill="black"/>
<path d="M789.228 144.436L791.737 145.475C791.851 145.523 791.97 145.545 792.087 145.545C792.448 145.545 792.789 145.332 792.936 144.978C793.13 144.51 792.908 143.973 792.439 143.779L789.93 142.74C789.462 142.546 788.925 142.768 788.731 143.236C788.537 143.705 788.759 144.242 789.228 144.436Z" fill="black"/>
<path d="M796.651 140.289C796.831 140.468 797.065 140.558 797.3 140.558C797.535 140.558 797.77 140.468 797.949 140.289C798.308 139.93 798.308 139.349 797.949 138.99L791.732 132.773C791.374 132.415 790.793 132.415 790.434 132.773C790.076 133.132 790.076 133.713 790.434 134.072L796.651 140.289Z" fill="black"/>
<path d="M824.981 157.681C824.293 158.369 823.377 158.748 822.404 158.748C821.431 158.748 820.516 158.369 819.827 157.681C817.69 155.544 814.214 155.544 812.077 157.681C811.389 158.369 810.474 158.748 809.5 158.748C808.527 158.748 807.612 158.369 806.923 157.681C804.786 155.544 801.31 155.544 799.173 157.681C798.485 158.369 797.569 158.748 796.596 158.748C795.623 158.748 794.708 158.369 794.019 157.681C793.661 157.322 793.08 157.322 792.721 157.681C792.363 158.039 792.363 158.62 792.721 158.979C793.756 160.014 795.132 160.584 796.596 160.584C798.06 160.584 799.436 160.014 800.471 158.979C801.892 157.558 804.204 157.558 805.625 158.979C806.66 160.014 808.036 160.584 809.5 160.584C810.964 160.584 812.34 160.014 813.375 158.979C814.796 157.558 817.108 157.558 818.529 158.979C819.564 160.014 820.94 160.584 822.404 160.584C823.868 160.584 825.244 160.014 826.279 158.979C826.638 158.62 826.638 158.039 826.279 157.681C825.921 157.322 825.339 157.322 824.981 157.681V157.681Z" fill="black"/>
<path d="M818.529 165.476C817.84 166.164 816.925 166.543 815.952 166.543C814.979 166.543 814.063 166.164 813.375 165.476C812.34 164.441 810.964 163.871 809.5 163.871C808.036 163.871 806.66 164.441 805.625 165.476C804.937 166.164 804.021 166.543 803.048 166.543C802.074 166.543 801.159 166.164 800.471 165.476C800.112 165.117 799.531 165.117 799.173 165.476C798.814 165.834 798.814 166.415 799.173 166.774C801.31 168.911 804.786 168.911 806.923 166.774C807.611 166.086 808.527 165.707 809.5 165.707C810.473 165.707 811.388 166.086 812.077 166.774C813.145 167.842 814.549 168.376 815.952 168.376C817.355 168.376 818.759 167.842 819.827 166.774C820.186 166.415 820.186 165.834 819.827 165.476C819.469 165.117 818.887 165.117 818.529 165.476V165.476Z" fill="black"/>
<path d="M810.149 152.488C810.32 152.318 810.418 152.081 810.418 151.839C810.418 151.598 810.32 151.361 810.149 151.19C809.978 151.02 809.742 150.921 809.5 150.921C809.258 150.921 809.022 151.02 808.851 151.19C808.68 151.361 808.582 151.598 808.582 151.839C808.582 152.081 808.68 152.318 808.851 152.488C809.022 152.659 809.259 152.757 809.5 152.757C809.742 152.757 809.978 152.659 810.149 152.488Z" fill="black"/>
</g>
<path d="M509.293 767.536C511.298 767.536 512.927 765.906 512.927 763.902C512.927 761.898 511.298 760.268 509.293 760.268C507.289 760.268 505.659 761.898 505.659 763.902C505.659 765.906 507.289 767.536 509.293 767.536ZM509.293 762.085C510.295 762.085 511.11 762.9 511.11 763.902C511.11 764.904 510.295 765.719 509.293 765.719C508.292 765.719 507.476 764.904 507.476 763.902C507.476 762.9 508.292 762.085 509.293 762.085Z" fill="#F6B122"/>
<path d="M513.382 756.3C513.95 756.3 514.41 755.839 514.41 755.271C514.41 754.703 513.95 754.242 513.382 754.242C512.814 754.242 512.353 754.703 512.353 755.271C512.353 755.839 512.813 756.3 513.382 756.3Z" fill="black"/>
<path d="M497.029 767.87C496.461 767.87 496 768.331 496 768.899C496 769.467 496.461 769.928 497.029 769.928C497.597 769.928 498.057 769.467 498.057 768.899C498.057 768.331 497.597 767.87 497.029 767.87Z" fill="black"/>
<path d="M544.725 753H532.751C526.83 753 522.012 757.818 522.012 763.739V774.804H510.947C505.026 774.804 500.208 779.622 500.208 785.543V797.517C500.208 798.019 500.615 798.425 501.117 798.425H513.091C519.012 798.425 523.829 793.608 523.829 787.686V776.621H534.895C540.816 776.621 545.634 771.804 545.634 765.882V753.909C545.634 753.406 545.227 753 544.725 753V753ZM522.012 787.686C522.012 792.606 518.01 796.608 513.091 796.608H502.025V785.543C502.025 780.623 506.028 776.621 510.947 776.621H522.012V787.686ZM543.817 765.882C543.817 770.802 539.814 774.804 534.895 774.804H523.829V763.739C523.829 758.819 527.832 754.817 532.751 754.817H543.817V765.882Z" fill="#097F9A"/>
<g opacity="0.5">
<path d="M32.7998 590.257C30.3696 590.257 29.1153 591.139 28.0089 591.917C27.037 592.6 26.2694 593.14 24.5993 593.14C22.9296 593.14 22.1619 592.6 21.1904 591.917C20.084 591.139 18.8296 590.257 16.3994 590.257C13.9696 590.257 12.7152 591.139 11.6088 591.917C10.6373 592.6 9.86963 593.14 8.19987 593.14C6.53012 593.14 5.7625 592.6 4.79092 591.917C3.68422 591.139 2.42987 590.257 0 590.257V592.659C1.67007 592.659 2.43738 593.199 3.40895 593.882C4.51566 594.66 5.76969 595.542 8.19987 595.542C10.6297 595.542 11.8841 594.66 12.9905 593.882C13.9621 593.199 14.7297 592.659 16.3994 592.659C18.0695 592.659 18.8368 593.199 19.8087 593.882C20.9151 594.66 22.1694 595.542 24.5993 595.542C27.0295 595.542 28.2838 594.66 29.3905 593.882C30.3621 593.199 31.1297 592.659 32.7998 592.659C34.4699 592.659 35.2372 593.199 36.2091 593.882C37.3155 594.66 38.5698 595.542 41 595.542V593.14C39.3299 593.14 38.5623 592.6 37.5907 591.917C36.484 591.139 35.2297 590.257 32.7998 590.257V590.257Z" fill="#F2C94C"/>
<path d="M32.7998 576.086C30.3696 576.086 29.1153 576.967 28.0089 577.745C27.037 578.429 26.2694 578.969 24.5993 578.969C22.9296 578.969 22.1619 578.429 21.1904 577.745C20.084 576.967 18.8296 576.086 16.3994 576.086C13.9696 576.086 12.7152 576.967 11.6088 577.745C10.6373 578.429 9.86963 578.969 8.19987 578.969C6.53012 578.969 5.7625 578.429 4.79092 577.745C3.68422 576.967 2.42987 576.086 0 576.086V578.488C1.67007 578.488 2.43738 579.028 3.40895 579.711C4.51566 580.489 5.76969 581.371 8.19987 581.371C10.6297 581.371 11.8841 580.489 12.9905 579.711C13.9621 579.028 14.7297 578.488 16.3994 578.488C18.0695 578.488 18.8368 579.028 19.8087 579.711C20.9151 580.489 22.1694 581.371 24.5993 581.371C27.0295 581.371 28.2838 580.489 29.3905 579.711C30.3621 579.028 31.1297 578.488 32.7998 578.488C34.4699 578.488 35.2372 579.028 36.2091 579.711C37.3155 580.489 38.5698 581.371 41 581.371V578.969C39.3299 578.969 38.5623 578.429 37.5907 577.745C36.484 576.967 35.2297 576.086 32.7998 576.086V576.086Z" fill="#F2C94C"/>
<path d="M32.7998 583.171C30.3696 583.171 29.1153 584.053 28.0089 584.831C27.037 585.514 26.2694 586.054 24.5993 586.054C22.9296 586.054 22.1619 585.514 21.1904 584.831C20.084 584.053 18.8296 583.171 16.3994 583.171C13.9696 583.171 12.7152 584.053 11.6088 584.831C10.6373 585.514 9.86963 586.054 8.19987 586.054C6.53012 586.054 5.7625 585.514 4.79092 584.831C3.68422 584.053 2.42987 583.171 0 583.171V585.574C1.67007 585.574 2.43738 586.113 3.40895 586.796C4.51566 587.574 5.76969 588.456 8.19987 588.456C10.6297 588.456 11.8841 587.574 12.9905 586.796C13.9621 586.113 14.7297 585.574 16.3994 585.574C18.0695 585.574 18.8368 586.113 19.8087 586.796C20.9151 587.574 22.1694 588.456 24.5993 588.456C27.0295 588.456 28.2838 587.574 29.3905 586.796C30.3621 586.113 31.1297 585.574 32.7998 585.574C34.4699 585.574 35.2372 586.113 36.2091 586.796C37.3155 587.574 38.5698 588.456 41 588.456V586.054C39.3299 586.054 38.5623 585.514 37.5907 584.831C36.484 584.053 35.2297 583.171 32.7998 583.171V583.171Z" fill="#F2C94C"/>
<path d="M37.5907 570.66C36.484 569.882 35.2297 569 32.7998 569C30.3696 569 29.1153 569.882 28.0089 570.66C27.037 571.343 26.2694 571.883 24.5993 571.883C22.9296 571.883 22.1619 571.343 21.1904 570.66C20.084 569.882 18.8296 569 16.3994 569C13.9696 569 12.7152 569.882 11.6088 570.66C10.6373 571.343 9.86963 571.883 8.19987 571.883C6.53012 571.883 5.7625 571.343 4.79092 570.66C3.68422 569.882 2.42987 569 0 569V571.402C1.67007 571.402 2.43738 571.942 3.40895 572.625C4.51566 573.403 5.76969 574.285 8.19987 574.285C10.6297 574.285 11.8841 573.403 12.9905 572.625C13.9621 571.942 14.7297 571.402 16.3994 571.402C18.0695 571.402 18.8368 571.942 19.8087 572.625C20.9151 573.403 22.1694 574.285 24.5993 574.285C27.0295 574.285 28.2838 573.403 29.3905 572.625C30.3621 571.942 31.1297 571.402 32.7998 571.402C34.4699 571.402 35.2372 571.942 36.2091 572.625C37.3155 573.403 38.5698 574.285 41 574.285V571.883C39.3299 571.883 38.5623 571.343 37.5907 570.66V570.66Z" fill="#F2C94C"/>
</g>
</svg>
