<svg width="1440" height="894" viewBox="0 0 1440 894" fill="none" xmlns="http://www.w3.org/2000/svg">
<rect width="1440" height="894" fill="#FAFAFA"/>
<g opacity="0.5">
<path d="M822.719 151.839C822.719 144.539 816.801 138.621 809.5 138.621C802.2 138.621 796.281 144.539 796.281 151.839H822.719Z" fill="#FFCB7C"/>
<path d="M826.064 143.168C826.21 143.521 826.552 143.735 826.912 143.735C827.029 143.735 827.148 143.712 827.263 143.665L829.772 142.626C830.241 142.432 830.463 141.895 830.269 141.426C830.075 140.958 829.538 140.735 829.069 140.93L826.561 141.969C826.092 142.163 825.87 142.7 826.064 143.168Z" fill="black"/>
<path d="M832.082 150.922H823.606C823.131 143.553 816.987 137.703 809.5 137.703C802.013 137.703 795.869 143.553 795.394 150.922H786.918C786.411 150.922 786 151.333 786 151.84C786 152.347 786.411 152.758 786.918 152.758H805.369C805.876 152.758 806.287 152.347 806.287 151.84C806.287 151.333 805.876 150.922 805.369 150.922H797.233C797.705 144.566 803.026 139.539 809.5 139.539C815.974 139.539 821.295 144.566 821.767 150.922H813.631C813.124 150.922 812.713 151.333 812.713 151.84C812.713 152.347 813.124 152.758 813.631 152.758H832.082C832.589 152.758 833 152.347 833 151.84C833 151.333 832.589 150.922 832.082 150.922Z" fill="black"/>
<path d="M809.5 135.504C810.007 135.504 810.418 135.093 810.418 134.586V125.918C810.418 125.411 810.007 125 809.5 125C808.993 125 808.582 125.411 808.582 125.918V134.586C808.582 135.093 808.993 135.504 809.5 135.504Z" fill="black"/>
<path d="M816.361 135.275C816.476 135.323 816.595 135.345 816.712 135.345C817.072 135.345 817.414 135.132 817.56 134.778L818.599 132.27C818.793 131.801 818.571 131.264 818.103 131.07C817.634 130.877 817.097 131.099 816.903 131.567L815.864 134.076C815.67 134.544 815.893 135.081 816.361 135.275Z" fill="black"/>
<path d="M821.7 140.558C821.935 140.558 822.17 140.468 822.349 140.289L828.566 134.072C828.924 133.713 828.924 133.132 828.566 132.773C828.207 132.415 827.626 132.415 827.268 132.773L821.051 138.99C820.692 139.349 820.692 139.93 821.051 140.289C821.23 140.468 821.465 140.558 821.7 140.558Z" fill="black"/>
<path d="M801.44 134.778C801.586 135.132 801.928 135.345 802.288 135.345C802.405 135.345 802.524 135.323 802.639 135.275C803.107 135.081 803.33 134.544 803.136 134.076L802.097 131.567C801.903 131.099 801.366 130.877 800.897 131.07C800.429 131.264 800.207 131.801 800.4 132.27L801.44 134.778Z" fill="black"/>
<path d="M789.228 144.436L791.737 145.475C791.851 145.523 791.97 145.545 792.087 145.545C792.448 145.545 792.789 145.332 792.936 144.978C793.13 144.51 792.908 143.973 792.439 143.779L789.93 142.74C789.462 142.546 788.925 142.768 788.731 143.236C788.537 143.705 788.759 144.242 789.228 144.436Z" fill="black"/>
<path d="M796.651 140.289C796.831 140.468 797.065 140.558 797.3 140.558C797.535 140.558 797.77 140.468 797.949 140.289C798.308 139.93 798.308 139.349 797.949 138.99L791.732 132.773C791.374 132.415 790.793 132.415 790.434 132.773C790.076 133.132 790.076 133.713 790.434 134.072L796.651 140.289Z" fill="black"/>
<path d="M824.981 157.681C824.293 158.369 823.377 158.748 822.404 158.748C821.431 158.748 820.516 158.369 819.827 157.681C817.69 155.544 814.214 155.544 812.077 157.681C811.389 158.369 810.474 158.748 809.5 158.748C808.527 158.748 807.612 158.369 806.923 157.681C804.786 155.544 801.31 155.544 799.173 157.681C798.485 158.369 797.569 158.748 796.596 158.748C795.623 158.748 794.708 158.369 794.019 157.681C793.661 157.322 793.08 157.322 792.721 157.681C792.363 158.039 792.363 158.62 792.721 158.979C793.756 160.014 795.132 160.584 796.596 160.584C798.06 160.584 799.436 160.014 800.471 158.979C801.892 157.558 804.204 157.558 805.625 158.979C806.66 160.014 808.036 160.584 809.5 160.584C810.964 160.584 812.34 160.014 813.375 158.979C814.796 157.558 817.108 157.558 818.529 158.979C819.564 160.014 820.94 160.584 822.404 160.584C823.868 160.584 825.244 160.014 826.279 158.979C826.638 158.62 826.638 158.039 826.279 157.681C825.921 157.322 825.339 157.322 824.981 157.681V157.681Z" fill="black"/>
<path d="M818.529 165.476C817.84 166.164 816.925 166.543 815.952 166.543C814.979 166.543 814.063 166.164 813.375 165.476C812.34 164.441 810.964 163.871 809.5 163.871C808.036 163.871 806.66 164.441 805.625 165.476C804.937 166.164 804.021 166.543 803.048 166.543C802.074 166.543 801.159 166.164 800.471 165.476C800.112 165.117 799.531 165.117 799.173 165.476C798.814 165.834 798.814 166.415 799.173 166.774C801.31 168.911 804.786 168.911 806.923 166.774C807.611 166.086 808.527 165.707 809.5 165.707C810.473 165.707 811.388 166.086 812.077 166.774C813.145 167.842 814.549 168.376 815.952 168.376C817.355 168.376 818.759 167.842 819.827 166.774C820.186 166.415 820.186 165.834 819.827 165.476C819.469 165.117 818.887 165.117 818.529 165.476V165.476Z" fill="black"/>
<path d="M810.149 152.488C810.32 152.318 810.418 152.081 810.418 151.839C810.418 151.598 810.32 151.361 810.149 151.19C809.978 151.02 809.742 150.921 809.5 150.921C809.258 150.921 809.022 151.02 808.851 151.19C808.68 151.361 808.582 151.598 808.582 151.839C808.582 152.081 808.68 152.318 808.851 152.488C809.022 152.659 809.259 152.757 809.5 152.757C809.742 152.757 809.978 152.659 810.149 152.488Z" fill="black"/>
</g>
<path d="M509.293 767.536C511.298 767.536 512.927 765.906 512.927 763.902C512.927 761.898 511.298 760.268 509.293 760.268C507.289 760.268 505.659 761.898 505.659 763.902C505.659 765.906 507.289 767.536 509.293 767.536ZM509.293 762.085C510.295 762.085 511.11 762.9 511.11 763.902C511.11 764.904 510.295 765.719 509.293 765.719C508.292 765.719 507.476 764.904 507.476 763.902C507.476 762.9 508.292 762.085 509.293 762.085Z" fill="#F6B122"/>
<path d="M513.382 756.3C513.95 756.3 514.41 755.839 514.41 755.271C514.41 754.703 513.95 754.242 513.382 754.242C512.814 754.242 512.353 754.703 512.353 755.271C512.353 755.839 512.813 756.3 513.382 756.3Z" fill="black"/>
<path d="M497.029 767.87C496.461 767.87 496 768.331 496 768.899C496 769.467 496.461 769.928 497.029 769.928C497.597 769.928 498.057 769.467 498.057 768.899C498.057 768.331 497.597 767.87 497.029 767.87Z" fill="black"/>
<path d="M544.725 753H532.751C526.83 753 522.012 757.818 522.012 763.739V774.804H510.947C505.026 774.804 500.208 779.622 500.208 785.543V797.517C500.208 798.019 500.615 798.425 501.117 798.425H513.091C519.012 798.425 523.829 793.608 523.829 787.686V776.621H534.895C540.816 776.621 545.634 771.804 545.634 765.882V753.909C545.634 753.406 545.227 753 544.725 753V753ZM522.012 787.686C522.012 792.606 518.01 796.608 513.091 796.608H502.025V785.543C502.025 780.623 506.028 776.621 510.947 776.621H522.012V787.686ZM543.817 765.882C543.817 770.802 539.814 774.804 534.895 774.804H523.829V763.739C523.829 758.819 527.832 754.817 532.751 754.817H543.817V765.882Z" fill="#097F9A"/>
</svg>
