<svg width="26" height="27" viewBox="0 0 26 27" fill="none" xmlns="http://www.w3.org/2000/svg">
<path d="M0 24.7207C0 25.8399 0.271092 27 1.278 27C1.66439 27 2.3606 26.9208 2.86229 26.8808C5.99655 26.5605 12.7676 25.8399 17.3718 25.4805V23.9209C12.7694 23.6007 5.80467 22.8 2.82532 22.5215C2.32542 22.4484 1.82155 22.408 1.31672 22.4005C0.232365 22.4406 0 23.6407 0 24.7207ZM11.8892 3.30107C10.9501 3.86065 10.1148 4.68319 10.6183 5.58307C10.811 5.92974 11.2265 6.51389 11.5116 6.9479C13.3468 9.5884 17.3348 15.2916 19.9392 19.2332L21.2454 18.4534C19.2113 14.177 16.4045 7.53478 15.1432 4.7296C14.9544 4.24545 14.7363 3.7741 14.4901 3.31836C13.9145 2.36844 12.794 2.76424 11.8892 3.30107ZM3.14218 12.3727C2.60088 13.3417 2.27434 14.4863 3.14218 15.0068C3.47752 15.206 4.11828 15.4972 4.5742 15.7229C7.44353 17.0658 13.6548 19.942 17.8162 22.0102L18.5705 20.6599C14.7374 18.0021 9.09384 13.7093 6.64875 11.925C6.25187 11.6051 5.83623 11.311 5.4042 11.0442C4.44658 10.5174 3.67028 11.4373 3.14218 12.3727ZM21.5508 1.32116C21.5508 1.7206 21.6282 2.44123 21.667 2.95896C21.9777 6.20088 22.673 13.2006 23.0215 17.9594H24.5301C24.8399 13.1988 25.6136 5.99889 25.8847 2.91892C25.9546 2.40207 25.9931 1.8812 26 1.35937C25.9622 0.240211 24.8012 0 23.7556 0C22.673 0.00181977 21.5508 0.282067 21.5508 1.32116ZM22.9458 20.8992C23.4881 20.899 24.0183 21.0651 24.4693 21.3764C24.9203 21.6878 25.2718 22.1304 25.4795 22.6482C25.6871 23.1661 25.7415 23.736 25.6358 24.2859C25.5302 24.8358 25.2691 25.3409 24.8857 25.7373C24.5023 26.1338 24.0138 26.4038 23.4819 26.5133C22.9501 26.6227 22.3987 26.5666 21.8977 26.3521C21.3967 26.1376 20.9684 25.7744 20.6671 25.3083C20.3658 24.8421 20.205 24.2941 20.205 23.7335C20.205 22.982 20.4937 22.2612 21.0077 21.7297C21.5217 21.1982 22.2188 20.8994 22.9458 20.8992Z" fill="#EE2526"/>
</svg>
