<svg width="143" height="33" viewBox="0 0 143 33" fill="none" xmlns="http://www.w3.org/2000/svg">
<path d="M0 27.7207C0 28.8399 0.271092 30 1.278 30C1.66439 30 2.3606 29.9208 2.86229 29.8808C5.99655 29.5605 12.7676 28.8399 17.3718 28.4805V26.9209C12.7694 26.6007 5.80467 25.8 2.82532 25.5215C2.32542 25.4484 1.82155 25.408 1.31672 25.4005C0.232365 25.4406 0 26.6407 0 27.7207ZM11.8892 6.30107C10.9501 6.86065 10.1148 7.68319 10.6183 8.58307C10.811 8.92974 11.2265 9.51389 11.5116 9.9479C13.3468 12.5884 17.3348 18.2916 19.9392 22.2332L21.2454 21.4534C19.2113 17.177 16.4045 10.5348 15.1432 7.7296C14.9544 7.24545 14.7363 6.7741 14.4901 6.31836C13.9145 5.36844 12.794 5.76424 11.8892 6.30107ZM3.14218 15.3727C2.60088 16.3417 2.27434 17.4863 3.14218 18.0068C3.47752 18.206 4.11828 18.4972 4.5742 18.7229C7.44353 20.0658 13.6548 22.942 17.8162 25.0102L18.5705 23.6599C14.7374 21.0021 9.09384 16.7093 6.64875 14.925C6.25187 14.6051 5.83623 14.311 5.4042 14.0442C4.44658 13.5174 3.67028 14.4373 3.14218 15.3727ZM21.5508 4.32116C21.5508 4.7206 21.6282 5.44123 21.667 5.95896C21.9777 9.20088 22.673 16.2006 23.0215 20.9594H24.5301C24.8399 16.1988 25.6136 8.99889 25.8847 5.91892C25.9546 5.40207 25.9931 4.8812 26 4.35937C25.9622 3.24021 24.8012 3 23.7556 3C22.673 3.00182 21.5508 3.28207 21.5508 4.32116ZM22.9458 23.8992C23.4881 23.899 24.0183 24.0651 24.4693 24.3764C24.9203 24.6878 25.2718 25.1304 25.4795 25.6482C25.6871 26.1661 25.7415 26.736 25.6358 27.2859C25.5302 27.8358 25.2691 28.3409 24.8857 28.7373C24.5023 29.1338 24.0138 29.4038 23.4819 29.5133C22.9501 29.6227 22.3987 29.5666 21.8977 29.3521C21.3967 29.1376 20.9684 28.7744 20.6671 28.3083C20.3658 27.8421 20.205 27.2941 20.205 26.7335C20.205 25.982 20.4937 25.2612 21.0077 24.7297C21.5217 24.1982 22.2188 23.8994 22.9458 23.8992Z" fill="#EE2526"/>
<path d="M39.624 28.256C40.512 28.472 41.592 28.664 42.048 28.664C46.008 28.664 47.472 26.096 47.472 23.072V6.464H43.944V23.072C43.944 24.32 43.416 25.352 42.048 25.352C41.928 25.352 40.608 25.328 39.936 25.088L39.624 28.256ZM54.2543 11.792H50.9423V23H54.2543V11.792ZM50.5103 7.64C50.5103 8.72 51.4703 9.608 52.5983 9.608C53.7503 9.608 54.6383 8.72 54.6383 7.64C54.6383 6.512 53.7263 5.696 52.5983 5.696C51.4703 5.696 50.5103 6.536 50.5103 7.64ZM65.5253 17.36C65.5253 19.016 64.1813 20.096 62.8133 20.096C61.3733 20.096 60.1253 19.016 60.1253 17.36C60.1253 15.776 61.3733 14.72 62.8133 14.72C64.2053 14.72 65.5253 15.704 65.5253 17.36ZM56.9813 25.112C57.9413 27.2 60.0293 28.592 62.5013 28.592C66.4613 28.592 68.8373 26.264 68.8373 21.44V11.792H65.5973V13.184C65.0213 12.176 63.6293 11.552 62.2373 11.552C59.3573 11.552 56.6453 13.832 56.6453 17.432C56.6453 20.984 59.3573 23.24 62.2373 23.24C63.6533 23.24 65.0453 22.64 65.5973 21.608C65.7173 23.816 65.0693 25.592 62.5013 25.592C61.3733 25.592 60.0533 24.848 59.6693 23.792L56.9813 25.112ZM80.1268 17.36C80.1268 19.016 78.7828 20.096 77.4148 20.096C75.9748 20.096 74.7268 19.016 74.7268 17.36C74.7268 15.776 75.9748 14.72 77.4148 14.72C78.8068 14.72 80.1268 15.704 80.1268 17.36ZM71.5828 25.112C72.5428 27.2 74.6308 28.592 77.1028 28.592C81.0628 28.592 83.4388 26.264 83.4388 21.44V11.792H80.1988V13.184C79.6228 12.176 78.2308 11.552 76.8388 11.552C73.9588 11.552 71.2468 13.832 71.2468 17.432C71.2468 20.984 73.9588 23.24 76.8388 23.24C78.2548 23.24 79.6468 22.64 80.1988 21.608C80.3188 23.816 79.6708 25.592 77.1028 25.592C75.9748 25.592 74.6548 24.848 74.2708 23.792L71.5828 25.112ZM97.1284 11.792H93.5764L91.0804 18.152L88.6084 11.792H85.0564L89.3764 21.848L86.6884 28.496H90.2164L97.1284 11.792ZM102.019 23H104.875L109.627 11.792H106.051L103.459 18.752L100.843 11.792H97.2908L102.019 23ZM118.861 19.304C118.309 20.048 117.349 20.36 116.413 20.36C115.213 20.36 113.845 19.784 113.653 18.488H121.861C121.885 18.2 121.909 17.744 121.909 17.456C121.909 13.928 119.365 11.552 116.173 11.552C112.981 11.552 110.317 13.808 110.317 17.36C110.317 20.888 112.981 23.24 116.173 23.24C118.093 23.24 120.133 22.64 121.285 20.96L118.861 19.304ZM113.701 16.4C113.965 14.96 115.285 14.48 116.197 14.48C117.157 14.48 118.357 15.032 118.549 16.4H113.701ZM128.552 18.776C129.392 18.992 129.656 19.256 129.656 19.736C129.656 20.312 129.032 20.648 128.288 20.672C127.352 20.672 126.656 20.024 126.632 19.376H123.512C123.512 21.872 125.936 23.24 128.192 23.24C130.544 23.24 133.04 22.112 133.04 19.736C133.04 18.992 132.704 17.24 129.992 16.472L128.096 15.968C127.424 15.8 127.136 15.488 127.112 15.128C127.088 14.624 127.544 14.288 128.288 14.288C128.84 14.288 129.536 14.432 129.56 15.272H132.704C132.704 12.512 130.304 11.552 128.096 11.552C125.744 11.552 123.728 13.088 123.728 14.744C123.728 15.776 123.704 17.504 127.088 18.392L128.552 18.776ZM139.756 11.792V7.496H136.444V11.792H134.404V14.432H136.444V23H139.756V14.432H142.108V11.792H139.756Z" fill="#EE2526"/>
</svg>
