<svg width="74" height="77" viewBox="0 0 74 77" fill="none" xmlns="http://www.w3.org/2000/svg">
<path d="M37.0002 29.6632C34.2264 29.6681 31.4789 29.1249 28.9156 28.0649C26.3523 27.0049 24.0237 25.4489 22.0636 23.4863L20.7877 22.2104L22.5921 20.4061L23.868 21.6819C27.3536 25.1596 32.0764 27.1127 37.0002 27.1127C41.924 27.1127 46.6467 25.1596 50.1324 21.6819L51.4082 20.4061L53.2126 22.2104L51.9368 23.4863C49.9766 25.4489 47.648 27.0049 45.0847 28.0649C42.5214 29.1249 39.774 29.6681 37.0002 29.6632Z" fill="#B3D7F4"/>
<path d="M40.8278 4.72205L43.0832 10.1218L47.207 12.3772L43.0832 14.6326L40.8278 20.0323L38.5724 14.6326L34.4485 12.3772L38.5724 10.1218L40.8278 4.72205Z" fill="#D1E3EE"/>
<path d="M66.345 34.0668H71.4484V72.3425H66.345V34.0668Z" fill="#8FC3EC"/>
<path d="M59.9656 76.17H14.0348L26.7933 39.1702H47.207L59.9656 76.17Z" fill="#BF0D0E"/>
<path d="M59.9655 76.17H53.1726C34.0056 76.17 20.5451 57.2901 26.7933 39.1702H47.207L59.9655 76.17Z" fill="#EE2526"/>
<path d="M2.55212 34.0668H7.65554V72.3425H2.55212V34.0668Z" fill="#8FC3EC"/>
<path d="M2.55212 34.0668H5.10383V72.3425H2.55212V34.0668Z" fill="#6EB0E4"/>
<path d="M66.345 34.0668H68.8967V72.3425H66.345V34.0668Z" fill="#6EB0E4"/>
<path d="M5.10379 30.2392C7.92233 30.2392 10.2072 27.9544 10.2072 25.1358C10.2072 22.3173 7.92233 20.0324 5.10379 20.0324C2.28524 20.0324 0.000366211 22.3173 0.000366211 25.1358C0.000366211 27.9544 2.28524 30.2392 5.10379 30.2392Z" fill="#F2D831"/>
<path d="M7.65555 27.6875C6.8028 27.6875 5.96364 27.4737 5.21476 27.0658C4.46587 26.658 3.83114 26.0689 3.36854 25.3525C2.90594 24.6362 2.63023 23.8153 2.5666 22.9649C2.50296 22.1145 2.65344 21.2617 3.00427 20.4845C2.25157 20.8242 1.59253 21.3414 1.08374 21.9918C0.574942 22.6423 0.231584 23.4065 0.0831365 24.2188C-0.0653113 25.0311 -0.0144147 25.8674 0.231458 26.6557C0.47733 27.444 0.910834 28.1609 1.49476 28.7449C2.07868 29.3288 2.79558 29.7623 3.58392 30.0082C4.37226 30.254 5.20849 30.3049 6.02083 30.1565C6.83317 30.008 7.59735 29.6647 8.24778 29.1559C8.89822 28.6471 9.41547 27.9881 9.75513 27.2354C9.09547 27.5339 8.37963 27.6881 7.65555 27.6875Z" fill="#D1B320"/>
<path d="M68.8966 30.2392C71.7152 30.2392 74.0001 27.9544 74.0001 25.1358C74.0001 22.3173 71.7152 20.0324 68.8966 20.0324C66.0781 20.0324 63.7932 22.3173 63.7932 25.1358C63.7932 27.9544 66.0781 30.2392 68.8966 30.2392Z" fill="#F2D831"/>
<path d="M71.4483 27.6875C70.5955 27.6875 69.7564 27.4737 69.0075 27.0658C68.2586 26.658 67.6239 26.0689 67.1613 25.3525C66.6987 24.6362 66.423 23.8153 66.3593 22.9649C66.2957 22.1145 66.4462 21.2617 66.797 20.4845C66.0443 20.8242 65.3853 21.3414 64.8765 21.9918C64.3677 22.6423 64.0243 23.4065 63.8759 24.2188C63.7274 25.0311 63.7783 25.8674 64.0242 26.6557C64.2701 27.444 64.7036 28.1609 65.2875 28.7449C65.8714 29.3288 66.5883 29.7623 67.3766 30.0082C68.165 30.254 69.0012 30.3049 69.8136 30.1565C70.6259 30.008 71.3901 29.6647 72.0405 29.1559C72.6909 28.6471 73.2082 27.9881 73.5479 27.2354C72.8882 27.5339 72.1724 27.6881 71.4483 27.6875Z" fill="#D1B320"/>
<path d="M17.8624 21.6094H22.9658V39.1702H17.8624V21.6094Z" fill="#6EB0E4"/>
<path d="M20.4141 22.5841C22.528 22.5841 24.2417 20.8704 24.2417 18.7565C24.2417 16.6426 22.528 14.929 20.4141 14.929C18.3002 14.929 16.5865 16.6426 16.5865 18.7565C16.5865 20.8704 18.3002 22.5841 20.4141 22.5841Z" fill="#D1B320"/>
<path d="M51.0347 21.6094H56.1381V39.1702H51.0347V21.6094Z" fill="#6EB0E4"/>
<path d="M53.5864 22.5841C55.7003 22.5841 57.4139 20.8704 57.4139 18.7565C57.4139 16.6426 55.7003 14.929 53.5864 14.929C51.4724 14.929 49.7588 16.6426 49.7588 18.7565C49.7588 20.8704 51.4724 22.5841 53.5864 22.5841Z" fill="#D1B320"/>
<path d="M66.3448 39.1702L63.1364 42.3786C59.7041 45.8109 55.6294 48.5335 51.145 50.391C46.6605 52.2485 41.8541 53.2046 37.0002 53.2046C32.1462 53.2046 27.3398 52.2485 22.8554 50.391C18.3709 48.5335 14.2962 45.8109 10.864 42.3786L7.65552 39.1702V32.7909L9.4599 34.5953L13.042 38.1774C19.3961 44.5315 28.0141 48.1011 37.0002 48.1012C45.9862 48.1011 54.6042 44.5315 60.9583 38.1774L64.5405 34.5953L66.3448 32.7909V39.1702Z" fill="#B3D7F4"/>
<path d="M2.53613 71.0667H7.67144C8.34397 71.0667 8.98895 71.3338 9.4645 71.8094C9.94004 72.2849 10.2072 72.9299 10.2072 73.6024V76.1701H0.000366211V73.6024C0.000366211 72.9299 0.267526 72.2849 0.743073 71.8094C1.21862 71.3338 1.8636 71.0667 2.53613 71.0667Z" fill="#F2D831"/>
<path d="M2.55208 71.0667H2.53613C1.8636 71.0667 1.21862 71.3338 0.743073 71.8094C0.267526 72.2849 0.000366211 72.9299 0.000366211 73.6024V76.1701H10.2072V73.6184H5.10379C4.42703 73.6184 3.77799 73.3495 3.29945 72.871C2.82092 72.3924 2.55208 71.7434 2.55208 71.0667Z" fill="#D1B320"/>
<path d="M66.329 71.0667H71.4643C72.1368 71.0667 72.7818 71.3338 73.2573 71.8094C73.7329 72.2849 74.0001 72.9299 74.0001 73.6024V76.1701H63.7932V73.6024C63.7932 72.9299 64.0604 72.2849 64.5359 71.8094C65.0115 71.3338 65.6564 71.0667 66.329 71.0667Z" fill="#F2D831"/>
<path d="M66.3449 71.0667H66.329C65.6564 71.0667 65.0115 71.3338 64.5359 71.8094C64.0604 72.2849 63.7932 72.9299 63.7932 73.6024V76.1701H74.0001V73.6184H68.8966C68.2199 73.6184 67.5708 73.3495 67.0923 72.871C66.6138 72.3924 66.3449 71.7434 66.3449 71.0667Z" fill="#D1B320"/>
<path d="M7.65549 30.2393H2.55208C1.14281 30.2393 0.000366211 31.3817 0.000366211 32.791C0.000366211 34.2002 1.14281 35.3427 2.55208 35.3427H7.65549C9.06476 35.3427 10.2072 34.2002 10.2072 32.791C10.2072 31.3817 9.06476 30.2393 7.65549 30.2393Z" fill="#F2D831"/>
<path d="M8.93135 32.7909H3.82793C3.20861 32.7906 2.61056 32.565 2.14537 32.1562C1.68018 31.7473 1.37963 31.1832 1.29982 30.569C0.905591 30.7908 0.577461 31.1135 0.349104 31.5039C0.120746 31.8944 0.000383807 32.3386 0.000366211 32.7909C0.000366211 33.4677 0.269206 34.1167 0.747745 34.5953C1.22628 35.0738 1.87532 35.3426 2.55208 35.3426H7.65549C8.33225 35.3426 8.98129 35.0738 9.45982 34.5953C9.93836 34.1167 10.2072 33.4677 10.2072 32.7909C10.2064 32.6806 10.1985 32.5704 10.1836 32.4611C9.80172 32.6775 9.37026 32.7911 8.93135 32.7909Z" fill="#D1B320"/>
<path d="M71.4483 30.2393H66.3449C64.9357 30.2393 63.7932 31.3817 63.7932 32.791C63.7932 34.2002 64.9357 35.3427 66.3449 35.3427H71.4483C72.8576 35.3427 74.0001 34.2002 74.0001 32.791C74.0001 31.3817 72.8576 30.2393 71.4483 30.2393Z" fill="#F2D831"/>
<path d="M72.7242 32.7909H67.6208C67.0015 32.7906 66.4034 32.565 65.9382 32.1562C65.473 31.7473 65.1725 31.1832 65.0927 30.569C64.6984 30.7908 64.3703 31.1135 64.142 31.5039C63.9136 31.8944 63.7932 32.3386 63.7932 32.7909C63.7932 33.4677 64.0621 34.1167 64.5406 34.5953C65.0191 35.0738 65.6682 35.3426 66.3449 35.3426H71.4483C72.1251 35.3426 72.7741 35.0738 73.2527 34.5953C73.7312 34.1167 74.0001 33.4677 74.0001 32.7909C73.9992 32.6806 73.9913 32.5704 73.9764 32.4611C73.5946 32.6775 73.1631 32.7911 72.7242 32.7909Z" fill="#D1B320"/>
<path d="M26.7935 3.44617H29.3452V5.99788H26.7935V3.44617Z" fill="#D1E3EE"/>
<path d="M31.8967 3.44617H34.4484V5.99788H31.8967V3.44617Z" fill="#D1E3EE"/>
<path d="M29.345 0.894531H31.8967V3.44624H29.345V0.894531Z" fill="#D1E3EE"/>
<path d="M29.345 5.99799H31.8967V8.5497H29.345V5.99799Z" fill="#D1E3EE"/>
<path d="M29.345 17.4806H31.8967V20.0323H29.345V17.4806Z" fill="#D1E3EE"/>
<path d="M57.4138 3.44617H59.9655V5.99788H57.4138V3.44617Z" fill="#D1E3EE"/>
<path d="M15.3107 4.72205H17.8624V7.27376H15.3107V4.72205Z" fill="#D1E3EE"/>
</svg>
