<svg width="113" height="24" viewBox="0 0 113 24" fill="none" xmlns="http://www.w3.org/2000/svg">
<path d="M0 19.9667C0 20.7728 0.195262 21.6084 0.920516 21.6084C1.19883 21.6084 1.70029 21.5514 2.06165 21.5226C4.31919 21.2919 9.19627 20.7728 12.5125 20.514V19.3907C9.19754 19.16 4.18099 18.5832 2.03502 18.3827C1.67495 18.33 1.31203 18.3009 0.94841 18.2955C0.167368 18.3244 0 19.1888 0 19.9667ZM8.56357 4.53858C7.88714 4.94164 7.28551 5.5341 7.64813 6.18226C7.78697 6.43196 8.0862 6.85271 8.2916 7.16532C9.61342 9.06722 12.4859 13.1751 14.3618 16.0142L15.3026 15.4525C13.8375 12.3723 11.8158 7.58804 10.9073 5.56752C10.7714 5.2188 10.6143 4.87929 10.4369 4.55104C10.0223 3.86683 9.21529 4.15191 8.56357 4.53858ZM2.26325 11.0727C1.87336 11.7706 1.63816 12.5951 2.26325 12.97C2.50479 13.1135 2.96631 13.3232 3.29471 13.4857C5.36143 14.4531 9.8353 16.5247 12.8327 18.0144L13.376 17.0418C10.6151 15.1275 6.55011 12.0354 4.78896 10.7502C4.5031 10.5198 4.20372 10.308 3.89254 10.1158C3.20278 9.73635 2.64363 10.3989 2.26325 11.0727ZM15.5226 3.11249C15.5226 3.4002 15.5784 3.91926 15.6063 4.29216C15.8301 6.62726 16.3309 11.669 16.5819 15.0967H17.6686C17.8917 11.6677 18.449 6.48177 18.6442 4.26333C18.6946 3.89105 18.7223 3.51588 18.7273 3.14002C18.7 2.33391 17.8638 2.16089 17.1107 2.16089C16.3309 2.1622 15.5226 2.36406 15.5226 3.11249ZM16.5274 17.2142C16.918 17.214 17.2999 17.3337 17.6247 17.5579C17.9496 17.7821 18.2028 18.1009 18.3523 18.474C18.5019 18.847 18.5411 19.2575 18.465 19.6535C18.3889 20.0496 18.2008 20.4134 17.9247 20.699C17.6485 20.9845 17.2966 21.179 16.9136 21.2579C16.5305 21.3367 16.1334 21.2963 15.7725 21.1418C15.4116 20.9873 15.1031 20.7256 14.8861 20.3899C14.6691 20.0542 14.5533 19.6594 14.5533 19.2557C14.5533 18.7143 14.7612 18.1952 15.1314 17.8123C15.5016 17.4295 16.0038 17.2143 16.5274 17.2142Z" fill="white"/>
<path d="M30.7606 12.5081C30.7606 14.6516 32.5066 16.1902 35.0823 16.1902C37.2086 16.1902 39.3175 15.0492 39.3694 12.6982C39.4213 11.5746 38.9891 9.93236 36.1022 9.1026L34.6847 8.65315C33.5092 8.3247 33.4055 7.75424 33.4055 7.44308C33.4055 6.73432 34.0624 6.25029 34.944 6.25029C35.9639 6.25029 36.4825 6.78618 36.4825 7.59866H39.0064C39.0064 5.31681 37.2777 3.95116 34.9786 3.95116C32.6967 3.95116 30.8816 5.38596 30.8816 7.51222C30.8816 8.60129 31.3311 10.1052 33.9587 10.935L35.3935 11.3326C36.5862 11.6783 36.8455 12.1451 36.8283 12.681C36.811 13.4589 36.1195 13.9429 35.0823 13.9429C33.9241 13.9429 33.3536 13.2687 33.3018 12.5081H30.7606ZM44.2127 7.9271V4.83278H41.8271V7.9271H40.3577V9.82864H41.8271V16H44.2127V9.82864H45.9067V7.9271H44.2127ZM53.2432 16H55.6288V7.9271H53.2432V8.82601C52.5863 7.94439 51.4281 7.75424 50.8922 7.75424C48.8351 7.75424 46.778 9.37919 46.778 11.9549C46.778 14.5306 48.8351 16.1556 50.8922 16.1556C51.4972 16.1556 52.7419 15.8444 53.2432 15.0838V16ZM49.2673 11.9549C49.2673 10.7967 50.2699 10.0361 51.2898 10.0361C52.2751 10.0361 53.2432 10.7621 53.2432 11.9549C53.2432 13.165 52.2751 13.8737 51.2898 13.8737C50.2699 13.8737 49.2673 13.1131 49.2673 11.9549ZM65.4875 7.9271H62.929L61.1312 12.5081L59.3507 7.9271H56.7922L59.9039 15.1702L57.9677 19.9587H60.5089L65.4875 7.9271ZM67.6395 19.7858C68.2791 19.9414 69.057 20.0797 69.3855 20.0797C72.2378 20.0797 73.2923 18.23 73.2923 16.0519V4.08945H70.7511V16.0519C70.7511 16.9508 70.3708 17.6941 69.3855 17.6941C69.2991 17.6941 68.3483 17.6768 67.8643 17.5039L67.6395 19.7858ZM78.1774 7.9271H75.7918V16H78.1774V7.9271ZM75.4807 4.9365C75.4807 5.7144 76.1721 6.35401 76.9846 6.35401C77.8144 6.35401 78.454 5.7144 78.454 4.9365C78.454 4.12403 77.7971 3.53628 76.9846 3.53628C76.1721 3.53628 75.4807 4.14131 75.4807 4.9365ZM86.2957 11.9376C86.2957 13.1304 85.3276 13.9083 84.3423 13.9083C83.3051 13.9083 82.4062 13.1304 82.4062 11.9376C82.4062 10.7967 83.3051 10.0361 84.3423 10.0361C85.3449 10.0361 86.2957 10.7448 86.2957 11.9376ZM80.1416 17.5212C80.8331 19.0252 82.337 20.0278 84.1175 20.0278C86.9699 20.0278 88.6812 18.351 88.6812 14.8764V7.9271H86.3475V8.92973C85.9326 8.20369 84.93 7.75424 83.9274 7.75424C81.853 7.75424 79.8996 9.39647 79.8996 11.9895C79.8996 14.5479 81.853 16.1729 83.9274 16.1729C84.9473 16.1729 85.9499 15.7407 86.3475 14.9974C86.434 16.5877 85.9672 17.867 84.1175 17.867C83.3051 17.867 82.3543 17.3311 82.0777 16.5705L80.1416 17.5212ZM96.8129 11.9376C96.8129 13.1304 95.8448 13.9083 94.8595 13.9083C93.8223 13.9083 92.9234 13.1304 92.9234 11.9376C92.9234 10.7967 93.8223 10.0361 94.8595 10.0361C95.8621 10.0361 96.8129 10.7448 96.8129 11.9376ZM90.6588 17.5212C91.3503 19.0252 92.8542 20.0278 94.6348 20.0278C97.4871 20.0278 99.1984 18.351 99.1984 14.8764V7.9271H96.8647V8.92973C96.4499 8.20369 95.4472 7.75424 94.4446 7.75424C92.3702 7.75424 90.4168 9.39647 90.4168 11.9895C90.4168 14.5479 92.3702 16.1729 94.4446 16.1729C95.4645 16.1729 96.4671 15.7407 96.8647 14.9974C96.9512 16.5877 96.4844 17.867 94.6348 17.867C93.8223 17.867 92.8715 17.3311 92.5949 16.5705L90.6588 17.5212ZM109.059 7.9271H106.5L104.703 12.5081L102.922 7.9271H100.364L103.475 15.1702L101.539 19.9587H104.08L109.059 7.9271Z" fill="white"/>
</svg>
