<svg width="18" height="18" viewBox="0 0 18 18" fill="none" xmlns="http://www.w3.org/2000/svg">
<path d="M14.6926 5.0175C13.945 4.85309 13.2686 4.45608 12.7607 3.88342C12.2527 3.31076 11.9392 2.5919 11.8651 1.83V1.5H9.27761V11.7525C9.27813 12.2074 9.13551 12.651 8.86994 13.0203C8.60437 13.3897 8.22932 13.6661 7.79791 13.8105C7.3665 13.9548 6.9006 13.9598 6.46622 13.8247C6.03183 13.6895 5.65098 13.4211 5.37761 13.0575C5.1327 12.7356 4.98272 12.3517 4.94466 11.949C4.90659 11.5463 4.98194 11.1411 5.16219 10.779C5.34245 10.4169 5.62041 10.1125 5.96464 9.90019C6.30888 9.68786 6.70566 9.57609 7.11011 9.5775C7.33379 9.57622 7.55635 9.6091 7.77011 9.675V7.05C7.52136 7.01919 7.27069 7.00666 7.02011 7.0125C6.09709 7.03716 5.2013 7.33045 4.44242 7.85645C3.68355 8.38245 3.09453 9.11833 2.74749 9.97398C2.40046 10.8296 2.31047 11.7679 2.48855 12.6739C2.66663 13.5799 3.10504 14.4144 3.75011 15.075C4.41122 15.7472 5.25723 16.2076 6.18063 16.3978C7.10403 16.5881 8.06314 16.4995 8.9361 16.1434C9.80906 15.7873 10.5565 15.1798 11.0833 14.3979C11.6102 13.6161 11.8928 12.6953 11.8951 11.7525V6.5025C12.9387 7.24796 14.1901 7.64673 15.4726 7.6425V5.0925C15.2207 5.09354 14.9693 5.0684 14.7226 5.0175H14.6926Z" fill="white"/>
</svg>
