<svg width="18" height="18" viewBox="0 0 18 18" fill="none" xmlns="http://www.w3.org/2000/svg">
<path d="M16.6215 4.24195C16.0489 4.49522 15.4417 4.66155 14.82 4.73545C15.4753 4.34352 15.9658 3.72671 16.2 2.99994C15.585 3.36594 14.9107 3.62244 14.208 3.76119C13.7359 3.25613 13.1102 2.92117 12.4282 2.80838C11.7461 2.6956 11.0459 2.81131 10.4364 3.13753C9.82692 3.46376 9.34227 3.98221 9.05781 4.61229C8.77336 5.24237 8.70504 5.94878 8.86348 6.6217C7.61631 6.55919 6.39623 6.23509 5.28244 5.67044C4.16866 5.1058 3.18607 4.31323 2.39848 3.3442C2.1197 3.82303 1.97319 4.36736 1.97398 4.92144C1.97398 6.00894 2.52748 6.9697 3.36898 7.5322C2.87099 7.51652 2.38395 7.38203 1.94848 7.13995V7.17894C1.94863 7.90322 2.19926 8.60516 2.65786 9.16574C3.11647 9.72632 3.75484 10.1111 4.46473 10.2547C4.00244 10.38 3.51771 10.3984 3.04723 10.3087C3.24738 10.9321 3.63748 11.4773 4.16292 11.868C4.68836 12.2587 5.32282 12.4753 5.97748 12.4874C5.32684 12.9984 4.58186 13.3762 3.78514 13.5991C2.98842 13.822 2.15557 13.8856 1.33423 13.7864C2.768 14.7085 4.43705 15.198 6.14173 15.1964C11.9115 15.1964 15.0667 10.4167 15.0667 6.27145C15.0667 6.13645 15.063 5.99994 15.057 5.86645C15.6711 5.42257 16.2012 4.87271 16.6222 4.24269L16.6215 4.24195Z" fill="white"/>
</svg>
