<svg width="16" height="14" viewBox="0 0 16 14" fill="none" xmlns="http://www.w3.org/2000/svg">
<path d="M15.6215 2.24195C15.0489 2.49522 14.4417 2.66155 13.82 2.73545C14.4753 2.34352 14.9658 1.72671 15.2 0.999945C14.585 1.36594 13.9107 1.62244 13.208 1.76119C12.7359 1.25613 12.1102 0.921167 11.4282 0.808384C10.7461 0.6956 10.0459 0.811313 9.43643 1.13753C8.82692 1.46376 8.34227 1.98221 8.05781 2.61229C7.77336 3.24237 7.70504 3.94878 7.86348 4.6217C6.61631 4.55919 5.39623 4.23509 4.28244 3.67044C3.16866 3.1058 2.18607 2.31323 1.39848 1.3442C1.1197 1.82303 0.973195 2.36736 0.973978 2.92144C0.973978 4.00894 1.52748 4.9697 2.36898 5.5322C1.87099 5.51652 1.38395 5.38203 0.948478 5.13995V5.17894C0.948629 5.90322 1.19926 6.60516 1.65786 7.16574C2.11647 7.72632 2.75484 8.11105 3.46473 8.25469C3.00244 8.37997 2.51771 8.39844 2.04723 8.30869C2.24738 8.93212 2.63748 9.47734 3.16292 9.86803C3.68836 10.2587 4.32282 10.4753 4.97748 10.4874C4.32684 10.9984 3.58186 11.3762 2.78514 11.5991C1.98842 11.822 1.15557 11.8856 0.334229 11.7864C1.768 12.7085 3.43705 13.198 5.14173 13.1964C10.9115 13.1964 14.0667 8.4167 14.0667 4.27145C14.0667 4.13645 14.063 3.99994 14.057 3.86645C14.6711 3.42257 15.2012 2.87271 15.6222 2.24269L15.6215 2.24195Z" fill="white"/>
</svg>
